<svg width="21" height="21" viewBox="0 0 21 21" fill="none" xmlns="http://www.w3.org/2000/svg">
<path fill-rule="evenodd" clip-rule="evenodd" d="M10.6665 18.7998C15.0848 18.7998 18.6665 15.2181 18.6665 10.7998C18.6665 6.38153 15.0848 2.7998 10.6665 2.7998C6.24823 2.7998 2.6665 6.38153 2.6665 10.7998C2.6665 15.2181 6.24823 18.7998 10.6665 18.7998ZM14.3736 9.50691C14.7641 9.11639 14.7641 8.48322 14.3736 8.0927C13.9831 7.70217 13.3499 7.70217 12.9594 8.0927L9.6665 11.3856L8.37361 10.0927C7.98309 9.70217 7.34992 9.70217 6.9594 10.0927C6.56887 10.4832 6.56887 11.1164 6.9594 11.5069L8.9594 13.5069C9.34992 13.8974 9.98309 13.8974 10.3736 13.5069L14.3736 9.50691Z" fill="#635BFF"/>
</svg>
