<svg width="452" height="363" viewBox="0 0 452 363" fill="none" xmlns="http://www.w3.org/2000/svg">
<g filter="url(#filter0_d_13001_806)">
<rect x="96" y="56" width="299.422" height="211" rx="24" fill="white"/>
</g>
<path d="M115.635 89.24C115.635 88.5467 115.752 87.8693 115.987 87.208C116.232 86.536 116.584 85.928 117.043 85.384C117.512 84.8293 118.083 84.392 118.755 84.072C119.427 83.7413 120.189 83.576 121.043 83.576C122.056 83.576 122.925 83.8107 123.651 84.28C124.376 84.7387 124.915 85.3307 125.267 86.056L124.131 86.792C123.907 86.312 123.619 85.9333 123.267 85.656C122.925 85.368 122.552 85.1653 122.147 85.048C121.752 84.9307 121.363 84.872 120.979 84.872C120.349 84.872 119.789 85 119.299 85.256C118.819 85.512 118.413 85.8533 118.083 86.28C117.752 86.7067 117.501 87.1867 117.331 87.72C117.171 88.2427 117.091 88.7707 117.091 89.304C117.091 89.8907 117.187 90.456 117.379 91C117.581 91.544 117.859 92.024 118.211 92.44C118.563 92.856 118.979 93.1867 119.459 93.432C119.939 93.6773 120.461 93.8 121.027 93.8C121.421 93.8 121.827 93.7307 122.243 93.592C122.659 93.4533 123.048 93.24 123.411 92.952C123.773 92.6533 124.061 92.2693 124.275 91.8L125.475 92.456C125.24 93.0213 124.877 93.5013 124.387 93.896C123.896 94.2907 123.347 94.5893 122.739 94.792C122.141 94.9947 121.549 95.096 120.963 95.096C120.184 95.096 119.469 94.9307 118.819 94.6C118.168 94.2587 117.603 93.8107 117.123 93.256C116.653 92.6907 116.285 92.0613 116.019 91.368C115.763 90.664 115.635 89.9547 115.635 89.24ZM130.701 95.16C130.072 95.16 129.501 95.048 128.989 94.824C128.477 94.5893 128.034 94.2747 127.661 93.88C127.288 93.4747 127 93.0107 126.797 92.488C126.594 91.9653 126.493 91.416 126.493 90.84C126.493 90.2533 126.594 89.6987 126.797 89.176C127 88.6533 127.288 88.1947 127.661 87.8C128.034 87.3947 128.477 87.08 128.989 86.856C129.512 86.6213 130.082 86.504 130.701 86.504C131.33 86.504 131.901 86.6213 132.413 86.856C132.925 87.08 133.368 87.3947 133.741 87.8C134.125 88.1947 134.418 88.6533 134.621 89.176C134.824 89.6987 134.925 90.2533 134.925 90.84C134.925 91.416 134.824 91.9653 134.621 92.488C134.418 93.0107 134.13 93.4747 133.757 93.88C133.384 94.2747 132.936 94.5893 132.413 94.824C131.901 95.048 131.33 95.16 130.701 95.16ZM127.933 90.856C127.933 91.432 128.056 91.9547 128.301 92.424C128.557 92.8933 128.893 93.2667 129.309 93.544C129.725 93.8107 130.189 93.944 130.701 93.944C131.213 93.944 131.677 93.8053 132.093 93.528C132.52 93.2507 132.856 92.8773 133.101 92.408C133.357 91.928 133.485 91.4 133.485 90.824C133.485 90.248 133.357 89.7253 133.101 89.256C132.856 88.7867 132.52 88.4133 132.093 88.136C131.677 87.8587 131.213 87.72 130.701 87.72C130.189 87.72 129.725 87.864 129.309 88.152C128.893 88.4293 128.557 88.8027 128.301 89.272C128.056 89.7413 127.933 90.2693 127.933 90.856ZM139.495 95.16C138.802 95.16 138.151 95.048 137.543 94.824C136.935 94.5893 136.412 94.2427 135.975 93.784L136.519 92.792C136.999 93.24 137.479 93.56 137.959 93.752C138.439 93.944 138.93 94.04 139.431 94.04C140.007 94.04 140.476 93.9333 140.839 93.72C141.202 93.496 141.383 93.1707 141.383 92.744C141.383 92.4347 141.287 92.2053 141.095 92.056C140.914 91.9067 140.652 91.784 140.311 91.688C139.97 91.5813 139.564 91.464 139.095 91.336C138.519 91.1653 138.034 90.984 137.639 90.792C137.244 90.6 136.946 90.36 136.743 90.072C136.54 89.784 136.439 89.4213 136.439 88.984C136.439 88.4507 136.578 88.0027 136.855 87.64C137.132 87.2667 137.511 86.984 137.991 86.792C138.482 86.6 139.036 86.504 139.655 86.504C140.274 86.504 140.834 86.6 141.335 86.792C141.836 86.984 142.268 87.2667 142.631 87.64L141.991 88.616C141.66 88.2747 141.298 88.024 140.903 87.864C140.508 87.6933 140.066 87.608 139.575 87.608C139.287 87.608 139.004 87.6453 138.727 87.72C138.45 87.784 138.22 87.9067 138.039 88.088C137.858 88.2587 137.767 88.504 137.767 88.824C137.767 89.0907 137.836 89.304 137.975 89.464C138.124 89.6133 138.338 89.7413 138.615 89.848C138.903 89.9547 139.25 90.072 139.655 90.2C140.284 90.3813 140.828 90.5627 141.287 90.744C141.756 90.9253 142.119 91.16 142.375 91.448C142.631 91.736 142.759 92.136 142.759 92.648C142.759 93.4373 142.46 94.056 141.863 94.504C141.266 94.9413 140.476 95.16 139.495 95.16ZM148.764 94.584C148.646 94.6373 148.486 94.7067 148.284 94.792C148.081 94.8773 147.846 94.952 147.58 95.016C147.313 95.08 147.03 95.112 146.732 95.112C146.39 95.112 146.076 95.0533 145.788 94.936C145.5 94.808 145.27 94.616 145.1 94.36C144.929 94.0933 144.844 93.7627 144.844 93.368V87.752H143.708V86.648H144.844V83.864H146.252V86.648H148.124V87.752H146.252V92.936C146.273 93.2347 146.374 93.4587 146.556 93.608C146.737 93.7467 146.95 93.816 147.196 93.816C147.473 93.816 147.729 93.768 147.964 93.672C148.198 93.576 148.353 93.5067 148.428 93.464L148.764 94.584ZM116.371 119V107.64H121.235C121.736 107.64 122.195 107.747 122.611 107.96C123.027 108.163 123.389 108.44 123.699 108.792C124.008 109.133 124.248 109.523 124.419 109.96C124.589 110.387 124.675 110.824 124.675 111.272C124.675 111.795 124.573 112.291 124.371 112.76C124.179 113.229 123.901 113.629 123.539 113.96C123.187 114.291 122.771 114.52 122.291 114.648L125.043 119H123.411L120.819 114.92H117.811V119H116.371ZM117.811 113.64H121.251C121.645 113.64 121.987 113.533 122.275 113.32C122.573 113.096 122.803 112.803 122.963 112.44C123.133 112.077 123.219 111.688 123.219 111.272C123.219 110.845 123.123 110.456 122.931 110.104C122.739 109.741 122.488 109.453 122.179 109.24C121.869 109.027 121.528 108.92 121.155 108.92H117.811V113.64ZM130.093 119.16C129.463 119.16 128.887 119.048 128.365 118.824C127.853 118.589 127.405 118.275 127.021 117.88C126.647 117.475 126.354 117.011 126.141 116.488C125.938 115.965 125.837 115.411 125.837 114.824C125.837 114.035 126.018 113.315 126.381 112.664C126.743 112.013 127.245 111.491 127.885 111.096C128.535 110.701 129.277 110.504 130.109 110.504C130.951 110.504 131.682 110.707 132.301 111.112C132.93 111.507 133.415 112.029 133.757 112.68C134.109 113.32 134.285 114.013 134.285 114.76C134.285 114.867 134.279 114.973 134.269 115.08C134.269 115.176 134.263 115.251 134.253 115.304H127.325C127.367 115.848 127.517 116.333 127.773 116.76C128.039 117.176 128.381 117.507 128.797 117.752C129.213 117.987 129.661 118.104 130.141 118.104C130.653 118.104 131.133 117.976 131.581 117.72C132.039 117.464 132.354 117.128 132.525 116.712L133.741 117.048C133.559 117.453 133.287 117.816 132.925 118.136C132.573 118.456 132.151 118.707 131.661 118.888C131.181 119.069 130.658 119.16 130.093 119.16ZM127.277 114.328H132.973C132.93 113.784 132.775 113.304 132.509 112.888C132.242 112.472 131.901 112.147 131.485 111.912C131.069 111.677 130.61 111.56 130.109 111.56C129.618 111.56 129.165 111.677 128.749 111.912C128.333 112.147 127.991 112.472 127.725 112.888C127.469 113.304 127.319 113.784 127.277 114.328ZM135.306 114.84C135.306 114.051 135.466 113.331 135.786 112.68C136.117 112.019 136.565 111.491 137.13 111.096C137.706 110.701 138.362 110.504 139.098 110.504C139.77 110.504 140.373 110.68 140.906 111.032C141.439 111.384 141.855 111.811 142.154 112.312V107.32H143.562V117.4C143.562 117.571 143.594 117.699 143.658 117.784C143.733 117.859 143.85 117.901 144.01 117.912V119C143.743 119.043 143.535 119.064 143.386 119.064C143.109 119.064 142.863 118.968 142.65 118.776C142.447 118.584 142.346 118.371 142.346 118.136V117.432C142.015 117.965 141.573 118.387 141.018 118.696C140.463 119.005 139.887 119.16 139.29 119.16C138.714 119.16 138.181 119.048 137.69 118.824C137.21 118.589 136.789 118.269 136.426 117.864C136.074 117.459 135.797 117 135.594 116.488C135.402 115.965 135.306 115.416 135.306 114.84ZM142.154 116.072V113.672C142.026 113.309 141.818 112.984 141.53 112.696C141.242 112.397 140.917 112.163 140.554 111.992C140.202 111.811 139.85 111.72 139.498 111.72C139.082 111.72 138.703 111.811 138.362 111.992C138.031 112.163 137.743 112.397 137.498 112.696C137.263 112.984 137.082 113.315 136.954 113.688C136.826 114.061 136.762 114.451 136.762 114.856C136.762 115.272 136.831 115.667 136.97 116.04C137.119 116.413 137.322 116.744 137.578 117.032C137.845 117.32 138.149 117.544 138.49 117.704C138.842 117.864 139.221 117.944 139.626 117.944C139.882 117.944 140.143 117.896 140.41 117.8C140.687 117.704 140.949 117.571 141.194 117.4C141.439 117.229 141.647 117.032 141.818 116.808C141.989 116.573 142.101 116.328 142.154 116.072ZM145.832 115.656V110.648H147.24V115.384C147.24 116.237 147.39 116.877 147.688 117.304C147.987 117.731 148.43 117.944 149.016 117.944C149.4 117.944 149.768 117.864 150.12 117.704C150.483 117.533 150.808 117.293 151.096 116.984C151.384 116.675 151.608 116.307 151.768 115.88V110.648H153.176V117.4C153.176 117.571 153.208 117.699 153.272 117.784C153.347 117.859 153.464 117.901 153.624 117.912V119C153.464 119.021 153.336 119.032 153.24 119.032C153.155 119.043 153.07 119.048 152.984 119.048C152.718 119.048 152.488 118.968 152.296 118.808C152.104 118.637 152.003 118.429 151.992 118.184L151.96 117.208C151.598 117.827 151.107 118.307 150.488 118.648C149.88 118.989 149.214 119.16 148.488 119.16C147.614 119.16 146.952 118.867 146.504 118.28C146.056 117.683 145.832 116.808 145.832 115.656ZM159.218 119.16C158.588 119.16 158.012 119.048 157.49 118.824C156.978 118.589 156.53 118.269 156.146 117.864C155.772 117.459 155.479 116.995 155.266 116.472C155.063 115.949 154.962 115.395 154.962 114.808C154.962 114.019 155.138 113.299 155.49 112.648C155.842 111.997 156.338 111.48 156.978 111.096C157.618 110.701 158.359 110.504 159.202 110.504C160.023 110.504 160.738 110.691 161.346 111.064C161.964 111.427 162.423 111.917 162.722 112.536L161.346 112.968C161.132 112.573 160.834 112.269 160.45 112.056C160.066 111.832 159.639 111.72 159.17 111.72C158.658 111.72 158.188 111.853 157.762 112.12C157.346 112.387 157.015 112.755 156.77 113.224C156.524 113.683 156.402 114.211 156.402 114.808C156.402 115.395 156.524 115.928 156.77 116.408C157.026 116.877 157.362 117.251 157.778 117.528C158.204 117.805 158.674 117.944 159.186 117.944C159.516 117.944 159.831 117.885 160.13 117.768C160.439 117.651 160.706 117.496 160.93 117.304C161.164 117.101 161.324 116.883 161.41 116.648L162.786 117.064C162.615 117.469 162.354 117.832 162.002 118.152C161.66 118.461 161.25 118.707 160.77 118.888C160.3 119.069 159.783 119.16 159.218 119.16ZM168.701 118.584C168.584 118.637 168.424 118.707 168.221 118.792C168.018 118.877 167.784 118.952 167.517 119.016C167.25 119.08 166.968 119.112 166.669 119.112C166.328 119.112 166.013 119.053 165.725 118.936C165.437 118.808 165.208 118.616 165.037 118.36C164.866 118.093 164.781 117.763 164.781 117.368V111.752H163.645V110.648H164.781V107.864H166.189V110.648H168.061V111.752H166.189V116.936C166.21 117.235 166.312 117.459 166.493 117.608C166.674 117.747 166.888 117.816 167.133 117.816C167.41 117.816 167.666 117.768 167.901 117.672C168.136 117.576 168.29 117.507 168.365 117.464L168.701 118.584ZM170.006 119V110.648H171.414V119H170.006ZM170.006 109.08V107.32H171.414V109.08H170.006ZM177.342 119.16C176.712 119.16 176.142 119.048 175.63 118.824C175.118 118.589 174.675 118.275 174.302 117.88C173.928 117.475 173.64 117.011 173.438 116.488C173.235 115.965 173.134 115.416 173.134 114.84C173.134 114.253 173.235 113.699 173.438 113.176C173.64 112.653 173.928 112.195 174.302 111.8C174.675 111.395 175.118 111.08 175.63 110.856C176.152 110.621 176.723 110.504 177.342 110.504C177.971 110.504 178.542 110.621 179.054 110.856C179.566 111.08 180.008 111.395 180.382 111.8C180.766 112.195 181.059 112.653 181.262 113.176C181.464 113.699 181.566 114.253 181.566 114.84C181.566 115.416 181.464 115.965 181.262 116.488C181.059 117.011 180.771 117.475 180.398 117.88C180.024 118.275 179.576 118.589 179.054 118.824C178.542 119.048 177.971 119.16 177.342 119.16ZM174.574 114.856C174.574 115.432 174.696 115.955 174.942 116.424C175.198 116.893 175.534 117.267 175.95 117.544C176.366 117.811 176.83 117.944 177.342 117.944C177.854 117.944 178.318 117.805 178.734 117.528C179.16 117.251 179.496 116.877 179.742 116.408C179.998 115.928 180.126 115.4 180.126 114.824C180.126 114.248 179.998 113.725 179.742 113.256C179.496 112.787 179.16 112.413 178.734 112.136C178.318 111.859 177.854 111.72 177.342 111.72C176.83 111.72 176.366 111.864 175.95 112.152C175.534 112.429 175.198 112.803 174.942 113.272C174.696 113.741 174.574 114.269 174.574 114.856ZM190.52 119H189.112V114.328C189.112 113.443 188.973 112.797 188.696 112.392C188.429 111.976 188.018 111.768 187.464 111.768C187.08 111.768 186.696 111.864 186.312 112.056C185.938 112.248 185.602 112.509 185.304 112.84C185.016 113.16 184.808 113.533 184.68 113.96V119H183.272V110.648H184.552V112.44C184.776 112.045 185.064 111.704 185.416 111.416C185.768 111.128 186.168 110.904 186.616 110.744C187.064 110.584 187.533 110.504 188.024 110.504C188.504 110.504 188.904 110.595 189.224 110.776C189.554 110.947 189.81 111.192 189.992 111.512C190.184 111.821 190.317 112.189 190.392 112.616C190.477 113.043 190.52 113.507 190.52 114.008V119Z" fill="#00112D"/>
<rect x="320.75" y="76" width="54.5564" height="26" rx="13" fill="#F3F3F6"/>
<path fill-rule="evenodd" clip-rule="evenodd" d="M334.034 86.2778C334.034 85.974 334.28 85.7278 334.584 85.7278L339.251 85.7278C339.555 85.7278 339.801 85.974 339.801 86.2778L339.801 90.9447C339.801 91.2484 339.555 91.4947 339.251 91.4947C338.947 91.4947 338.701 91.2484 338.701 90.9447L338.701 87.6056L334.195 92.1114C333.98 92.3262 333.632 92.3262 333.417 92.1114C333.203 91.8966 333.203 91.5484 333.417 91.3336L337.923 86.8278L334.584 86.8278C334.28 86.8278 334.034 86.5815 334.034 86.2778Z" fill="#635BFF"/>
<path d="M348.619 86.978H344.604V86.087H350.148L346.221 93.897H345.121L348.619 86.978ZM356.375 89.915C356.375 90.4137 356.251 90.8683 356.001 91.279C355.759 91.6823 355.426 92.005 355 92.247C354.582 92.489 354.109 92.61 353.581 92.61C353.024 92.61 352.533 92.478 352.107 92.214C351.682 91.9427 351.348 91.554 351.106 91.048C350.872 90.542 350.754 89.9407 350.754 89.244C350.754 88.2173 350.875 87.363 351.117 86.681C351.359 85.999 351.7 85.4893 352.14 85.152C352.58 84.8073 353.094 84.635 353.68 84.635C354.186 84.635 354.645 84.7597 355.055 85.009C355.473 85.251 355.8 85.5883 356.034 86.021L355.44 86.604C355.279 86.2593 355.041 85.988 354.725 85.79C354.41 85.5847 354.058 85.482 353.669 85.482C353.273 85.482 352.925 85.603 352.624 85.845C352.324 86.087 352.089 86.4353 351.92 86.89C351.759 87.3447 351.675 87.8947 351.667 88.54C351.777 88.2833 351.931 88.0633 352.129 87.88C352.327 87.6893 352.558 87.5427 352.822 87.44C353.094 87.3373 353.38 87.286 353.68 87.286C354.186 87.286 354.641 87.4033 355.044 87.638C355.455 87.8727 355.778 88.188 356.012 88.584C356.254 88.98 356.375 89.4237 356.375 89.915ZM353.592 91.774C353.93 91.774 354.238 91.6897 354.516 91.521C354.802 91.3523 355.03 91.1287 355.198 90.85C355.367 90.564 355.451 90.2523 355.451 89.915C355.451 89.5777 355.367 89.2697 355.198 88.991C355.03 88.7123 354.802 88.4887 354.516 88.32C354.238 88.1513 353.93 88.067 353.592 88.067C353.255 88.067 352.943 88.1513 352.657 88.32C352.379 88.4887 352.155 88.7123 351.986 88.991C351.818 89.2697 351.733 89.5777 351.733 89.915C351.733 90.2523 351.818 90.564 351.986 90.85C352.155 91.1287 352.379 91.3523 352.657 91.521C352.943 91.6897 353.255 91.774 353.592 91.774ZM358.965 87.792C358.657 87.792 358.375 87.7223 358.118 87.583C357.862 87.4363 357.656 87.242 357.502 87C357.348 86.7507 357.271 86.4793 357.271 86.186C357.271 85.8853 357.348 85.614 357.502 85.372C357.656 85.13 357.862 84.9393 358.118 84.8C358.375 84.6533 358.657 84.58 358.965 84.58C359.281 84.58 359.567 84.6533 359.823 84.8C360.08 84.9393 360.282 85.13 360.428 85.372C360.582 85.614 360.659 85.8817 360.659 86.175C360.659 86.4757 360.582 86.7507 360.428 87C360.282 87.242 360.08 87.4363 359.823 87.583C359.567 87.7223 359.281 87.792 358.965 87.792ZM358.965 87.264C359.149 87.264 359.314 87.2163 359.46 87.121C359.614 87.0183 359.735 86.8863 359.823 86.725C359.911 86.5563 359.955 86.3767 359.955 86.186C359.955 85.988 359.908 85.8083 359.812 85.647C359.724 85.4783 359.603 85.3463 359.449 85.251C359.303 85.1557 359.141 85.108 358.965 85.108C358.782 85.108 358.613 85.1593 358.459 85.262C358.313 85.3573 358.195 85.4893 358.107 85.658C358.019 85.8193 357.975 85.9953 357.975 86.186C357.975 86.384 358.019 86.5637 358.107 86.725C358.203 86.8863 358.324 87.0183 358.47 87.121C358.624 87.2163 358.789 87.264 358.965 87.264ZM362.826 92.61C362.511 92.61 362.225 92.5403 361.968 92.401C361.719 92.2543 361.517 92.06 361.363 91.818C361.209 91.5687 361.132 91.2973 361.132 91.004C361.132 90.7033 361.209 90.432 361.363 90.19C361.517 89.948 361.719 89.7573 361.968 89.618C362.225 89.4713 362.511 89.398 362.826 89.398C363.142 89.398 363.428 89.4713 363.684 89.618C363.941 89.7573 364.143 89.948 364.289 90.19C364.443 90.432 364.52 90.6997 364.52 90.993C364.52 91.2937 364.443 91.5687 364.289 91.818C364.143 92.06 363.941 92.2543 363.684 92.401C363.428 92.5403 363.142 92.61 362.826 92.61ZM362.826 92.082C363.01 92.082 363.175 92.0343 363.321 91.939C363.475 91.8363 363.596 91.7043 363.684 91.543C363.772 91.3743 363.816 91.1947 363.816 91.004C363.816 90.806 363.769 90.6263 363.673 90.465C363.585 90.2963 363.464 90.1643 363.31 90.069C363.164 89.9737 363.002 89.926 362.826 89.926C362.643 89.926 362.474 89.9773 362.32 90.08C362.174 90.1753 362.056 90.3073 361.968 90.476C361.88 90.6373 361.836 90.8133 361.836 91.004C361.836 91.202 361.88 91.3817 361.968 91.543C362.064 91.7043 362.185 91.8363 362.331 91.939C362.485 92.0343 362.65 92.082 362.826 92.082ZM357.645 92.137L360.725 88.43L363.673 84.635L364.146 85.042L361.099 88.727L358.107 92.555L357.645 92.137Z" fill="#635BFF"/>
<path d="M117.291 124.688L117.739 124.696V125.856H117.291V124.688ZM117.331 124.6V119.728L117.691 119.672V124.616L117.331 124.6ZM117.291 118.48H117.739V119.624L117.291 119.68V118.48ZM119.075 120.512C119.011 120.437 118.925 120.365 118.819 120.296C118.712 120.227 118.592 120.165 118.459 120.112C118.325 120.053 118.179 120.008 118.019 119.976C117.864 119.939 117.701 119.92 117.531 119.92C117.093 119.92 116.771 120.003 116.563 120.168C116.355 120.333 116.251 120.56 116.251 120.848C116.251 121.051 116.304 121.211 116.411 121.328C116.517 121.445 116.68 121.541 116.899 121.616C117.123 121.691 117.405 121.768 117.747 121.848C118.141 121.933 118.483 122.037 118.771 122.16C119.059 122.283 119.28 122.448 119.435 122.656C119.589 122.859 119.667 123.131 119.667 123.472C119.667 123.744 119.613 123.981 119.507 124.184C119.405 124.381 119.261 124.547 119.075 124.68C118.888 124.808 118.669 124.904 118.419 124.968C118.168 125.027 117.896 125.056 117.603 125.056C117.315 125.056 117.032 125.027 116.755 124.968C116.483 124.904 116.224 124.813 115.979 124.696C115.733 124.579 115.504 124.432 115.291 124.256L115.635 123.648C115.72 123.739 115.829 123.829 115.963 123.92C116.101 124.005 116.256 124.085 116.427 124.16C116.603 124.235 116.792 124.296 116.995 124.344C117.197 124.387 117.405 124.408 117.619 124.408C118.024 124.408 118.339 124.336 118.563 124.192C118.787 124.043 118.899 123.827 118.899 123.544C118.899 123.331 118.835 123.16 118.707 123.032C118.584 122.904 118.4 122.797 118.155 122.712C117.909 122.627 117.611 122.541 117.259 122.456C116.875 122.36 116.552 122.256 116.291 122.144C116.029 122.027 115.832 121.875 115.699 121.688C115.571 121.501 115.507 121.259 115.507 120.96C115.507 120.597 115.595 120.291 115.771 120.04C115.947 119.789 116.189 119.6 116.499 119.472C116.808 119.344 117.157 119.28 117.547 119.28C117.803 119.28 118.04 119.307 118.259 119.36C118.483 119.413 118.691 119.488 118.883 119.584C119.075 119.68 119.251 119.795 119.411 119.928L119.075 120.512ZM123.395 124.36V125H120.523V124.36H121.659V121.24C121.611 121.304 121.537 121.373 121.435 121.448C121.334 121.517 121.219 121.584 121.091 121.648C120.963 121.712 120.835 121.765 120.707 121.808C120.579 121.845 120.462 121.864 120.355 121.864V121.192C120.473 121.192 120.601 121.16 120.739 121.096C120.883 121.027 121.022 120.947 121.155 120.856C121.289 120.765 121.401 120.68 121.491 120.6C121.587 120.52 121.643 120.464 121.659 120.432H122.379V124.36H123.395ZM128.069 122.656C128.069 123.125 127.981 123.544 127.805 123.912C127.629 124.275 127.389 124.56 127.085 124.768C126.781 124.976 126.434 125.08 126.045 125.08C125.656 125.08 125.309 124.976 125.005 124.768C124.701 124.56 124.461 124.275 124.285 123.912C124.109 123.544 124.021 123.125 124.021 122.656C124.021 122.187 124.109 121.771 124.285 121.408C124.461 121.04 124.701 120.752 125.005 120.544C125.309 120.331 125.656 120.224 126.045 120.224C126.434 120.224 126.781 120.331 127.085 120.544C127.389 120.752 127.629 121.04 127.805 121.408C127.981 121.771 128.069 122.187 128.069 122.656ZM127.357 122.656C127.357 122.304 127.301 121.995 127.189 121.728C127.077 121.461 126.922 121.253 126.725 121.104C126.528 120.955 126.301 120.88 126.045 120.88C125.784 120.88 125.554 120.955 125.357 121.104C125.16 121.253 125.005 121.461 124.893 121.728C124.781 121.995 124.725 122.304 124.725 122.656C124.725 123.008 124.781 123.317 124.893 123.584C125.005 123.845 125.16 124.051 125.357 124.2C125.554 124.349 125.784 124.424 126.045 124.424C126.301 124.424 126.528 124.349 126.725 124.2C126.922 124.051 127.077 123.845 127.189 123.584C127.301 123.317 127.357 123.008 127.357 122.656ZM119.491 134.656C119.491 135.125 119.403 135.544 119.227 135.912C119.051 136.275 118.811 136.56 118.507 136.768C118.203 136.976 117.856 137.08 117.467 137.08C117.077 137.08 116.731 136.976 116.427 136.768C116.123 136.56 115.883 136.275 115.707 135.912C115.531 135.544 115.443 135.125 115.443 134.656C115.443 134.187 115.531 133.771 115.707 133.408C115.883 133.04 116.123 132.752 116.427 132.544C116.731 132.331 117.077 132.224 117.467 132.224C117.856 132.224 118.203 132.331 118.507 132.544C118.811 132.752 119.051 133.04 119.227 133.408C119.403 133.771 119.491 134.187 119.491 134.656ZM118.779 134.656C118.779 134.304 118.723 133.995 118.611 133.728C118.499 133.461 118.344 133.253 118.147 133.104C117.949 132.955 117.723 132.88 117.467 132.88C117.205 132.88 116.976 132.955 116.779 133.104C116.581 133.253 116.427 133.461 116.315 133.728C116.203 133.995 116.147 134.304 116.147 134.656C116.147 135.008 116.203 135.317 116.315 135.584C116.427 135.845 116.581 136.051 116.779 136.2C116.976 136.349 117.205 136.424 117.467 136.424C117.723 136.424 117.949 136.349 118.147 136.2C118.344 136.051 118.499 135.845 118.611 135.584C118.723 135.317 118.779 135.008 118.779 134.656Z" fill="#A5AEC0"/>
<path d="M117.291 156.688L117.739 156.696V157.856H117.291V156.688ZM117.331 156.6V151.728L117.691 151.672V156.616L117.331 156.6ZM117.291 150.48H117.739V151.624L117.291 151.68V150.48ZM119.075 152.512C119.011 152.437 118.925 152.365 118.819 152.296C118.712 152.227 118.592 152.165 118.459 152.112C118.325 152.053 118.179 152.008 118.019 151.976C117.864 151.939 117.701 151.92 117.531 151.92C117.093 151.92 116.771 152.003 116.563 152.168C116.355 152.333 116.251 152.56 116.251 152.848C116.251 153.051 116.304 153.211 116.411 153.328C116.517 153.445 116.68 153.541 116.899 153.616C117.123 153.691 117.405 153.768 117.747 153.848C118.141 153.933 118.483 154.037 118.771 154.16C119.059 154.283 119.28 154.448 119.435 154.656C119.589 154.859 119.667 155.131 119.667 155.472C119.667 155.744 119.613 155.981 119.507 156.184C119.405 156.381 119.261 156.547 119.075 156.68C118.888 156.808 118.669 156.904 118.419 156.968C118.168 157.027 117.896 157.056 117.603 157.056C117.315 157.056 117.032 157.027 116.755 156.968C116.483 156.904 116.224 156.813 115.979 156.696C115.733 156.579 115.504 156.432 115.291 156.256L115.635 155.648C115.72 155.739 115.829 155.829 115.963 155.92C116.101 156.005 116.256 156.085 116.427 156.16C116.603 156.235 116.792 156.296 116.995 156.344C117.197 156.387 117.405 156.408 117.619 156.408C118.024 156.408 118.339 156.336 118.563 156.192C118.787 156.043 118.899 155.827 118.899 155.544C118.899 155.331 118.835 155.16 118.707 155.032C118.584 154.904 118.4 154.797 118.155 154.712C117.909 154.627 117.611 154.541 117.259 154.456C116.875 154.36 116.552 154.256 116.291 154.144C116.029 154.027 115.832 153.875 115.699 153.688C115.571 153.501 115.507 153.259 115.507 152.96C115.507 152.597 115.595 152.291 115.771 152.04C115.947 151.789 116.189 151.6 116.499 151.472C116.808 151.344 117.157 151.28 117.547 151.28C117.803 151.28 118.04 151.307 118.259 151.36C118.483 151.413 118.691 151.488 118.883 151.584C119.075 151.68 119.251 151.795 119.411 151.928L119.075 152.512ZM122.083 158.192C121.678 158.192 121.313 158.096 120.987 157.904C120.662 157.712 120.417 157.456 120.251 157.136L120.691 156.752C120.841 156.997 121.038 157.195 121.283 157.344C121.534 157.493 121.803 157.568 122.091 157.568C122.337 157.568 122.555 157.515 122.747 157.408C122.939 157.301 123.091 157.155 123.203 156.968C123.315 156.776 123.371 156.557 123.371 156.312C123.371 156.072 123.315 155.861 123.203 155.68C123.097 155.499 122.95 155.357 122.763 155.256C122.582 155.155 122.377 155.104 122.147 155.104C121.918 155.104 121.702 155.155 121.499 155.256C121.302 155.357 121.139 155.501 121.011 155.688H120.379L121.019 152.432H123.779V153.08H121.539L121.195 154.888C121.313 154.765 121.459 154.669 121.635 154.6C121.817 154.525 122.017 154.488 122.235 154.488C122.587 154.488 122.902 154.565 123.179 154.72C123.462 154.875 123.683 155.088 123.843 155.36C124.009 155.632 124.091 155.947 124.091 156.304C124.091 156.677 124.001 157.005 123.819 157.288C123.643 157.576 123.403 157.797 123.099 157.952C122.795 158.112 122.457 158.192 122.083 158.192ZM119.491 166.656C119.491 167.125 119.403 167.544 119.227 167.912C119.051 168.275 118.811 168.56 118.507 168.768C118.203 168.976 117.856 169.08 117.467 169.08C117.077 169.08 116.731 168.976 116.427 168.768C116.123 168.56 115.883 168.275 115.707 167.912C115.531 167.544 115.443 167.125 115.443 166.656C115.443 166.187 115.531 165.771 115.707 165.408C115.883 165.04 116.123 164.752 116.427 164.544C116.731 164.331 117.077 164.224 117.467 164.224C117.856 164.224 118.203 164.331 118.507 164.544C118.811 164.752 119.051 165.04 119.227 165.408C119.403 165.771 119.491 166.187 119.491 166.656ZM118.779 166.656C118.779 166.304 118.723 165.995 118.611 165.728C118.499 165.461 118.344 165.253 118.147 165.104C117.949 164.955 117.723 164.88 117.467 164.88C117.205 164.88 116.976 164.955 116.779 165.104C116.581 165.253 116.427 165.461 116.315 165.728C116.203 165.995 116.147 166.304 116.147 166.656C116.147 167.008 116.203 167.317 116.315 167.584C116.427 167.845 116.581 168.051 116.779 168.2C116.976 168.349 117.205 168.424 117.467 168.424C117.723 168.424 117.949 168.349 118.147 168.2C118.344 168.051 118.499 167.845 118.611 167.584C118.723 167.317 118.779 167.008 118.779 166.656Z" fill="#A5AEC0"/>
<path d="M117.291 188.688L117.739 188.696V189.856H117.291V188.688ZM117.331 188.6V183.728L117.691 183.672V188.616L117.331 188.6ZM117.291 182.48H117.739V183.624L117.291 183.68V182.48ZM119.075 184.512C119.011 184.437 118.925 184.365 118.819 184.296C118.712 184.227 118.592 184.165 118.459 184.112C118.325 184.053 118.179 184.008 118.019 183.976C117.864 183.939 117.701 183.92 117.531 183.92C117.093 183.92 116.771 184.003 116.563 184.168C116.355 184.333 116.251 184.56 116.251 184.848C116.251 185.051 116.304 185.211 116.411 185.328C116.517 185.445 116.68 185.541 116.899 185.616C117.123 185.691 117.405 185.768 117.747 185.848C118.141 185.933 118.483 186.037 118.771 186.16C119.059 186.283 119.28 186.448 119.435 186.656C119.589 186.859 119.667 187.131 119.667 187.472C119.667 187.744 119.613 187.981 119.507 188.184C119.405 188.381 119.261 188.547 119.075 188.68C118.888 188.808 118.669 188.904 118.419 188.968C118.168 189.027 117.896 189.056 117.603 189.056C117.315 189.056 117.032 189.027 116.755 188.968C116.483 188.904 116.224 188.813 115.979 188.696C115.733 188.579 115.504 188.432 115.291 188.256L115.635 187.648C115.72 187.739 115.829 187.829 115.963 187.92C116.101 188.005 116.256 188.085 116.427 188.16C116.603 188.235 116.792 188.296 116.995 188.344C117.197 188.387 117.405 188.408 117.619 188.408C118.024 188.408 118.339 188.336 118.563 188.192C118.787 188.043 118.899 187.827 118.899 187.544C118.899 187.331 118.835 187.16 118.707 187.032C118.584 186.904 118.4 186.797 118.155 186.712C117.909 186.627 117.611 186.541 117.259 186.456C116.875 186.36 116.552 186.256 116.291 186.144C116.029 186.027 115.832 185.875 115.699 185.688C115.571 185.501 115.507 185.259 115.507 184.96C115.507 184.597 115.595 184.291 115.771 184.04C115.947 183.789 116.189 183.6 116.499 183.472C116.808 183.344 117.157 183.28 117.547 183.28C117.803 183.28 118.04 183.307 118.259 183.36C118.483 183.413 118.691 183.488 118.883 183.584C119.075 183.68 119.251 183.795 119.411 183.928L119.075 184.512ZM120.331 189C120.331 188.787 120.347 188.587 120.379 188.4C120.417 188.213 120.481 188.035 120.571 187.864C120.667 187.693 120.801 187.531 120.971 187.376C121.142 187.216 121.363 187.061 121.635 186.912C121.795 186.821 121.955 186.736 122.115 186.656C122.281 186.576 122.433 186.491 122.571 186.4C122.715 186.309 122.83 186.211 122.915 186.104C123.001 185.992 123.043 185.864 123.043 185.72C123.043 185.597 123.006 185.48 122.931 185.368C122.862 185.251 122.755 185.157 122.611 185.088C122.473 185.013 122.299 184.976 122.091 184.976C121.931 184.976 121.785 184.997 121.651 185.04C121.523 185.083 121.406 185.139 121.299 185.208C121.198 185.272 121.107 185.341 121.027 185.416C120.953 185.485 120.889 185.549 120.835 185.608L120.395 185.112C120.438 185.064 120.51 185 120.611 184.92C120.713 184.835 120.841 184.749 120.995 184.664C121.15 184.579 121.329 184.507 121.531 184.448C121.739 184.384 121.966 184.352 122.211 184.352C122.542 184.352 122.825 184.411 123.059 184.528C123.299 184.64 123.483 184.795 123.611 184.992C123.739 185.184 123.803 185.4 123.803 185.64C123.803 185.848 123.758 186.029 123.667 186.184C123.582 186.339 123.47 186.475 123.331 186.592C123.198 186.709 123.057 186.811 122.907 186.896C122.763 186.976 122.633 187.045 122.515 187.104C122.275 187.221 122.07 187.328 121.899 187.424C121.729 187.52 121.587 187.616 121.475 187.712C121.369 187.803 121.281 187.899 121.211 188C121.147 188.101 121.099 188.221 121.067 188.36H123.891V189H120.331ZM126.365 190.192C125.959 190.192 125.594 190.096 125.269 189.904C124.943 189.712 124.698 189.456 124.533 189.136L124.973 188.752C125.122 188.997 125.319 189.195 125.565 189.344C125.815 189.493 126.085 189.568 126.373 189.568C126.618 189.568 126.837 189.515 127.029 189.408C127.221 189.301 127.373 189.155 127.485 188.968C127.597 188.776 127.653 188.557 127.653 188.312C127.653 188.072 127.597 187.861 127.485 187.68C127.378 187.499 127.231 187.357 127.045 187.256C126.863 187.155 126.658 187.104 126.429 187.104C126.199 187.104 125.983 187.155 125.781 187.256C125.583 187.357 125.421 187.501 125.293 187.688H124.661L125.301 184.432H128.061V185.08H125.821L125.477 186.888C125.594 186.765 125.741 186.669 125.917 186.6C126.098 186.525 126.298 186.488 126.517 186.488C126.869 186.488 127.183 186.565 127.461 186.72C127.743 186.875 127.965 187.088 128.125 187.36C128.29 187.632 128.373 187.947 128.373 188.304C128.373 188.677 128.282 189.005 128.101 189.288C127.925 189.576 127.685 189.797 127.381 189.952C127.077 190.112 126.738 190.192 126.365 190.192Z" fill="#A5AEC0"/>
<path d="M145.773 243.595C145.773 243.381 145.789 243.181 145.821 242.995C145.858 242.808 145.922 242.629 146.013 242.459C146.109 242.288 146.242 242.125 146.413 241.971C146.583 241.811 146.805 241.656 147.077 241.507C147.237 241.416 147.397 241.331 147.557 241.251C147.722 241.171 147.874 241.085 148.013 240.995C148.157 240.904 148.271 240.805 148.357 240.699C148.442 240.587 148.485 240.459 148.485 240.315C148.485 240.192 148.447 240.075 148.373 239.963C148.303 239.845 148.197 239.752 148.053 239.683C147.914 239.608 147.741 239.571 147.533 239.571C147.373 239.571 147.226 239.592 147.093 239.635C146.965 239.677 146.847 239.733 146.741 239.803C146.639 239.867 146.549 239.936 146.469 240.011C146.394 240.08 146.33 240.144 146.277 240.203L145.837 239.707C145.879 239.659 145.951 239.595 146.053 239.515C146.154 239.429 146.282 239.344 146.437 239.259C146.591 239.173 146.77 239.101 146.973 239.043C147.181 238.979 147.407 238.947 147.653 238.947C147.983 238.947 148.266 239.005 148.501 239.123C148.741 239.235 148.925 239.389 149.053 239.587C149.181 239.779 149.245 239.995 149.245 240.235C149.245 240.443 149.199 240.624 149.109 240.779C149.023 240.933 148.911 241.069 148.773 241.187C148.639 241.304 148.498 241.405 148.349 241.491C148.205 241.571 148.074 241.64 147.957 241.699C147.717 241.816 147.511 241.923 147.341 242.019C147.17 242.115 147.029 242.211 146.917 242.307C146.81 242.397 146.722 242.493 146.653 242.595C146.589 242.696 146.541 242.816 146.509 242.955H149.333V243.595H145.773ZM147.837 249.915H148.445L150.765 255.595H149.997L149.325 253.931H146.941L146.277 255.595H145.509L147.837 249.915ZM149.165 253.371L148.141 250.747L147.085 253.371H149.165ZM153.659 255.675C153.317 255.675 153.013 255.589 152.747 255.419C152.48 255.248 152.269 255.032 152.115 254.771V257.299H151.411V251.419H152.035V252.203C152.2 251.947 152.416 251.741 152.683 251.587C152.949 251.427 153.24 251.347 153.555 251.347C153.843 251.347 154.107 251.405 154.347 251.523C154.587 251.64 154.795 251.8 154.971 252.003C155.147 252.205 155.283 252.437 155.379 252.699C155.48 252.955 155.531 253.224 155.531 253.507C155.531 253.901 155.451 254.264 155.291 254.595C155.136 254.925 154.917 255.189 154.635 255.387C154.352 255.579 154.027 255.675 153.659 255.675ZM153.443 255.067C153.651 255.067 153.837 255.024 154.003 254.939C154.173 254.848 154.317 254.731 154.435 254.587C154.557 254.437 154.651 254.269 154.715 254.083C154.779 253.896 154.811 253.704 154.811 253.507C154.811 253.299 154.773 253.101 154.699 252.915C154.629 252.728 154.528 252.563 154.395 252.419C154.267 252.275 154.115 252.163 153.939 252.083C153.768 251.997 153.581 251.955 153.379 251.955C153.251 251.955 153.117 251.979 152.979 252.027C152.845 252.075 152.717 252.144 152.595 252.235C152.472 252.32 152.368 252.419 152.283 252.531C152.197 252.643 152.141 252.763 152.115 252.891V254.083C152.195 254.264 152.301 254.429 152.435 254.579C152.568 254.728 152.723 254.848 152.899 254.939C153.075 255.024 153.256 255.067 153.443 255.067ZM158.603 252.035C158.251 252.04 157.939 252.131 157.667 252.307C157.4 252.477 157.211 252.715 157.099 253.019V255.595H156.395V251.419H157.051V252.387C157.195 252.099 157.384 251.867 157.619 251.691C157.859 251.509 158.11 251.408 158.371 251.387C158.424 251.387 158.47 251.387 158.507 251.387C158.544 251.387 158.576 251.389 158.603 251.395V252.035Z" fill="#A5AEC0"/>
<path d="M184.689 240.987C184.689 240.624 184.777 240.296 184.953 240.003C185.135 239.704 185.38 239.467 185.689 239.291C185.999 239.115 186.343 239.027 186.721 239.027C187.132 239.027 187.489 239.125 187.793 239.323C188.103 239.515 188.343 239.795 188.513 240.163C188.689 240.525 188.777 240.963 188.777 241.475C188.777 242.221 188.689 242.843 188.513 243.339C188.337 243.835 188.089 244.205 187.769 244.451C187.449 244.701 187.076 244.827 186.649 244.827C186.281 244.827 185.945 244.736 185.641 244.555C185.343 244.379 185.108 244.133 184.937 243.819L185.369 243.395C185.487 243.64 185.66 243.837 185.889 243.987C186.124 244.136 186.38 244.211 186.657 244.211C186.951 244.211 187.204 244.123 187.417 243.947C187.636 243.771 187.804 243.517 187.921 243.187C188.044 242.856 188.108 242.456 188.113 241.987C188.039 242.168 187.927 242.328 187.777 242.467C187.633 242.605 187.465 242.712 187.273 242.787C187.081 242.861 186.873 242.899 186.649 242.899C186.287 242.899 185.956 242.813 185.657 242.643C185.359 242.472 185.121 242.243 184.945 241.955C184.775 241.667 184.689 241.344 184.689 240.987ZM186.713 239.635C186.468 239.635 186.241 239.696 186.033 239.819C185.831 239.941 185.668 240.104 185.545 240.307C185.423 240.509 185.361 240.736 185.361 240.987C185.361 241.232 185.423 241.456 185.545 241.659C185.668 241.861 185.831 242.024 186.033 242.147C186.241 242.269 186.468 242.331 186.713 242.331C186.964 242.331 187.191 242.269 187.393 242.147C187.596 242.024 187.759 241.861 187.881 241.659C188.004 241.456 188.065 241.232 188.065 240.987C188.065 240.741 188.004 240.517 187.881 240.315C187.759 240.107 187.593 239.941 187.385 239.819C187.183 239.696 186.959 239.635 186.713 239.635ZM186.809 249.915H187.417L189.737 255.595H188.969L188.297 253.931H185.913L185.249 255.595H184.481L186.809 249.915ZM188.137 253.371L187.113 250.747L186.057 253.371H188.137ZM192.631 255.675C192.29 255.675 191.986 255.589 191.719 255.419C191.453 255.248 191.242 255.032 191.087 254.771V257.299H190.383V251.419H191.007V252.203C191.173 251.947 191.389 251.741 191.655 251.587C191.922 251.427 192.213 251.347 192.527 251.347C192.815 251.347 193.079 251.405 193.319 251.523C193.559 251.64 193.767 251.8 193.943 252.003C194.119 252.205 194.255 252.437 194.351 252.699C194.453 252.955 194.503 253.224 194.503 253.507C194.503 253.901 194.423 254.264 194.263 254.595C194.109 254.925 193.89 255.189 193.607 255.387C193.325 255.579 192.999 255.675 192.631 255.675ZM192.415 255.067C192.623 255.067 192.81 255.024 192.975 254.939C193.146 254.848 193.29 254.731 193.407 254.587C193.53 254.437 193.623 254.269 193.687 254.083C193.751 253.896 193.783 253.704 193.783 253.507C193.783 253.299 193.746 253.101 193.671 252.915C193.602 252.728 193.501 252.563 193.367 252.419C193.239 252.275 193.087 252.163 192.911 252.083C192.741 251.997 192.554 251.955 192.351 251.955C192.223 251.955 192.09 251.979 191.951 252.027C191.818 252.075 191.69 252.144 191.567 252.235C191.445 252.32 191.341 252.419 191.255 252.531C191.17 252.643 191.114 252.763 191.087 252.891V254.083C191.167 254.264 191.274 254.429 191.407 254.579C191.541 254.728 191.695 254.848 191.871 254.939C192.047 255.024 192.229 255.067 192.415 255.067ZM197.576 252.035C197.224 252.04 196.912 252.131 196.64 252.307C196.373 252.477 196.184 252.715 196.072 253.019V255.595H195.368V251.419H196.024V252.387C196.168 252.099 196.357 251.867 196.592 251.691C196.832 251.509 197.082 251.408 197.344 251.387C197.397 251.387 197.442 251.387 197.48 251.387C197.517 251.387 197.549 251.389 197.576 251.395V252.035Z" fill="#A5AEC0"/>
<path d="M226.781 242.955V243.595H223.909V242.955H225.045V239.835C224.997 239.899 224.922 239.968 224.821 240.043C224.72 240.112 224.605 240.179 224.477 240.243C224.349 240.307 224.221 240.36 224.093 240.403C223.965 240.44 223.848 240.459 223.741 240.459V239.787C223.858 239.787 223.986 239.755 224.125 239.691C224.269 239.621 224.408 239.541 224.541 239.451C224.674 239.36 224.786 239.275 224.877 239.195C224.973 239.115 225.029 239.059 225.045 239.027H225.765V242.955H226.781ZM231.471 241.715C231.471 242.077 231.38 242.408 231.199 242.707C231.023 243 230.78 243.235 230.471 243.411C230.167 243.587 229.823 243.675 229.439 243.675C229.033 243.675 228.676 243.579 228.367 243.387C228.057 243.189 227.815 242.907 227.639 242.539C227.468 242.171 227.383 241.733 227.383 241.227C227.383 240.48 227.471 239.859 227.647 239.363C227.823 238.867 228.071 238.496 228.391 238.251C228.711 238 229.084 237.875 229.511 237.875C229.879 237.875 230.212 237.965 230.511 238.147C230.815 238.323 231.052 238.568 231.223 238.883L230.791 239.307C230.673 239.056 230.5 238.859 230.271 238.715C230.041 238.565 229.785 238.491 229.503 238.491C229.215 238.491 228.961 238.579 228.743 238.755C228.524 238.931 228.353 239.184 228.231 239.515C228.113 239.845 228.052 240.245 228.047 240.715C228.127 240.528 228.239 240.368 228.383 240.235C228.527 240.096 228.695 239.989 228.887 239.915C229.084 239.84 229.292 239.803 229.511 239.803C229.879 239.803 230.209 239.888 230.503 240.059C230.801 240.229 231.036 240.459 231.207 240.747C231.383 241.035 231.471 241.357 231.471 241.715ZM229.447 243.067C229.692 243.067 229.916 243.005 230.119 242.883C230.327 242.76 230.492 242.597 230.615 242.395C230.737 242.187 230.799 241.96 230.799 241.715C230.799 241.469 230.737 241.245 230.615 241.043C230.492 240.84 230.327 240.677 230.119 240.555C229.916 240.432 229.692 240.371 229.447 240.371C229.201 240.371 228.975 240.432 228.767 240.555C228.564 240.677 228.401 240.84 228.279 241.043C228.156 241.245 228.095 241.469 228.095 241.715C228.095 241.96 228.156 242.187 228.279 242.395C228.401 242.597 228.564 242.76 228.767 242.883C228.975 243.005 229.201 243.067 229.447 243.067ZM225.781 249.915H226.389L228.709 255.595H227.941L227.269 253.931H224.885L224.221 255.595H223.453L225.781 249.915ZM227.109 253.371L226.085 250.747L225.029 253.371H227.109ZM231.603 255.675C231.262 255.675 230.958 255.589 230.691 255.419C230.424 255.248 230.214 255.032 230.059 254.771V257.299H229.355V251.419H229.979V252.203C230.144 251.947 230.36 251.741 230.627 251.587C230.894 251.427 231.184 251.347 231.499 251.347C231.787 251.347 232.051 251.405 232.291 251.523C232.531 251.64 232.739 251.8 232.915 252.003C233.091 252.205 233.227 252.437 233.323 252.699C233.424 252.955 233.475 253.224 233.475 253.507C233.475 253.901 233.395 254.264 233.235 254.595C233.08 254.925 232.862 255.189 232.579 255.387C232.296 255.579 231.971 255.675 231.603 255.675ZM231.387 255.067C231.595 255.067 231.782 255.024 231.947 254.939C232.118 254.848 232.262 254.731 232.379 254.587C232.502 254.437 232.595 254.269 232.659 254.083C232.723 253.896 232.755 253.704 232.755 253.507C232.755 253.299 232.718 253.101 232.643 252.915C232.574 252.728 232.472 252.563 232.339 252.419C232.211 252.275 232.059 252.163 231.883 252.083C231.712 251.997 231.526 251.955 231.323 251.955C231.195 251.955 231.062 251.979 230.923 252.027C230.79 252.075 230.662 252.144 230.539 252.235C230.416 252.32 230.312 252.419 230.227 252.531C230.142 252.643 230.086 252.763 230.059 252.891V254.083C230.139 254.264 230.246 254.429 230.379 254.579C230.512 254.728 230.667 254.848 230.843 254.939C231.019 255.024 231.2 255.067 231.387 255.067ZM236.547 252.035C236.195 252.04 235.883 252.131 235.611 252.307C235.345 252.477 235.155 252.715 235.043 253.019V255.595H234.339V251.419H234.995V252.387C235.139 252.099 235.329 251.867 235.563 251.691C235.803 251.509 236.054 251.408 236.315 251.387C236.369 251.387 236.414 251.387 236.451 251.387C236.489 251.387 236.521 251.389 236.547 251.395V252.035Z" fill="#A5AEC0"/>
<path d="M265.541 243.595C265.541 243.381 265.557 243.181 265.589 242.995C265.627 242.808 265.691 242.629 265.781 242.459C265.877 242.288 266.011 242.125 266.181 241.971C266.352 241.811 266.573 241.656 266.845 241.507C267.005 241.416 267.165 241.331 267.325 241.251C267.491 241.171 267.643 241.085 267.781 240.995C267.925 240.904 268.04 240.805 268.125 240.699C268.211 240.587 268.253 240.459 268.253 240.315C268.253 240.192 268.216 240.075 268.141 239.963C268.072 239.845 267.965 239.752 267.821 239.683C267.683 239.608 267.509 239.571 267.301 239.571C267.141 239.571 266.995 239.592 266.861 239.635C266.733 239.677 266.616 239.733 266.509 239.803C266.408 239.867 266.317 239.936 266.237 240.011C266.163 240.08 266.099 240.144 266.045 240.203L265.605 239.707C265.648 239.659 265.72 239.595 265.821 239.515C265.923 239.429 266.051 239.344 266.205 239.259C266.36 239.173 266.539 239.101 266.741 239.043C266.949 238.979 267.176 238.947 267.421 238.947C267.752 238.947 268.035 239.005 268.269 239.123C268.509 239.235 268.693 239.389 268.821 239.587C268.949 239.779 269.013 239.995 269.013 240.235C269.013 240.443 268.968 240.624 268.877 240.779C268.792 240.933 268.68 241.069 268.541 241.187C268.408 241.304 268.267 241.405 268.117 241.491C267.973 241.571 267.843 241.64 267.725 241.699C267.485 241.816 267.28 241.923 267.109 242.019C266.939 242.115 266.797 242.211 266.685 242.307C266.579 242.397 266.491 242.493 266.421 242.595C266.357 242.696 266.309 242.816 266.277 242.955H269.101V243.595H265.541ZM272.343 241.707C272.572 241.744 272.769 241.829 272.935 241.963C273.1 242.091 273.228 242.256 273.319 242.459C273.409 242.656 273.455 242.88 273.455 243.131C273.455 243.456 273.375 243.741 273.215 243.987C273.06 244.237 272.839 244.429 272.551 244.563C272.263 244.701 271.927 244.771 271.543 244.771C271.137 244.771 270.78 244.693 270.471 244.539C270.167 244.389 269.929 244.176 269.759 243.899L270.231 243.427C270.353 243.64 270.519 243.811 270.727 243.939C270.94 244.067 271.212 244.131 271.543 244.131C271.911 244.131 272.199 244.045 272.407 243.875C272.62 243.709 272.727 243.461 272.727 243.131C272.727 242.795 272.612 242.528 272.383 242.331C272.159 242.128 271.831 242.027 271.399 242.027H271.191V241.435H271.415C271.799 241.435 272.092 241.341 272.295 241.155C272.503 240.968 272.607 240.736 272.607 240.459C272.607 240.267 272.561 240.109 272.471 239.987C272.38 239.864 272.257 239.773 272.103 239.715C271.948 239.651 271.769 239.619 271.567 239.619C271.273 239.619 271.015 239.683 270.791 239.811C270.572 239.933 270.401 240.107 270.279 240.331L269.847 239.883C269.943 239.701 270.079 239.544 270.255 239.411C270.436 239.277 270.644 239.173 270.879 239.099C271.119 239.024 271.372 238.987 271.639 238.987C271.975 238.987 272.271 239.045 272.527 239.163C272.788 239.28 272.991 239.445 273.135 239.659C273.279 239.872 273.351 240.123 273.351 240.411C273.351 240.619 273.311 240.816 273.231 241.003C273.151 241.184 273.033 241.339 272.879 241.467C272.729 241.589 272.551 241.669 272.343 241.707ZM277.98 237.915H278.588L280.908 243.595H280.14L279.468 241.931H277.084L276.42 243.595H275.652L277.98 237.915ZM279.308 241.371L278.284 238.747L277.228 241.371H279.308ZM283.802 243.675C283.461 243.675 283.157 243.589 282.89 243.419C282.624 243.248 282.413 243.032 282.258 242.771V245.299H281.554V239.419H282.178V240.203C282.344 239.947 282.56 239.741 282.826 239.587C283.093 239.427 283.384 239.347 283.698 239.347C283.986 239.347 284.25 239.405 284.49 239.523C284.73 239.64 284.938 239.8 285.114 240.003C285.29 240.205 285.426 240.437 285.522 240.699C285.624 240.955 285.674 241.224 285.674 241.507C285.674 241.901 285.594 242.264 285.434 242.595C285.28 242.925 285.061 243.189 284.778 243.387C284.496 243.579 284.17 243.675 283.802 243.675ZM283.586 243.067C283.794 243.067 283.981 243.024 284.146 242.939C284.317 242.848 284.461 242.731 284.578 242.587C284.701 242.437 284.794 242.269 284.858 242.083C284.922 241.896 284.954 241.704 284.954 241.507C284.954 241.299 284.917 241.101 284.842 240.915C284.773 240.728 284.672 240.563 284.538 240.419C284.41 240.275 284.258 240.163 284.082 240.083C283.912 239.997 283.725 239.955 283.522 239.955C283.394 239.955 283.261 239.979 283.122 240.027C282.989 240.075 282.861 240.144 282.738 240.235C282.616 240.32 282.512 240.419 282.426 240.531C282.341 240.643 282.285 240.763 282.258 240.891V242.083C282.338 242.264 282.445 242.429 282.578 242.579C282.712 242.728 282.866 242.848 283.042 242.939C283.218 243.024 283.4 243.067 283.586 243.067ZM288.747 240.035C288.395 240.04 288.083 240.131 287.811 240.307C287.544 240.477 287.355 240.715 287.243 241.019V243.595H286.539V239.419H287.195V240.387C287.339 240.099 287.528 239.867 287.763 239.691C288.003 239.509 288.253 239.408 288.515 239.387C288.568 239.387 288.613 239.387 288.651 239.387C288.688 239.387 288.72 239.389 288.747 239.395V240.035Z" fill="#A5AEC0"/>
<path d="M311.787 241.707C312.016 241.744 312.214 241.829 312.379 241.963C312.544 242.091 312.672 242.256 312.763 242.459C312.854 242.656 312.899 242.88 312.899 243.131C312.899 243.456 312.819 243.741 312.659 243.987C312.504 244.237 312.283 244.429 311.995 244.563C311.707 244.701 311.371 244.771 310.987 244.771C310.582 244.771 310.224 244.693 309.915 244.539C309.611 244.389 309.374 244.176 309.203 243.899L309.675 243.427C309.798 243.64 309.963 243.811 310.171 243.939C310.384 244.067 310.656 244.131 310.987 244.131C311.355 244.131 311.643 244.045 311.851 243.875C312.064 243.709 312.171 243.461 312.171 243.131C312.171 242.795 312.056 242.528 311.827 242.331C311.603 242.128 311.275 242.027 310.843 242.027H310.635V241.435H310.859C311.243 241.435 311.536 241.341 311.739 241.155C311.947 240.968 312.051 240.736 312.051 240.459C312.051 240.267 312.006 240.109 311.915 239.987C311.824 239.864 311.702 239.773 311.547 239.715C311.392 239.651 311.214 239.619 311.011 239.619C310.718 239.619 310.459 239.683 310.235 239.811C310.016 239.933 309.846 240.107 309.723 240.331L309.291 239.883C309.387 239.701 309.523 239.544 309.699 239.411C309.88 239.277 310.088 239.173 310.323 239.099C310.563 239.024 310.816 238.987 311.083 238.987C311.419 238.987 311.715 239.045 311.971 239.163C312.232 239.28 312.435 239.445 312.579 239.659C312.723 239.872 312.795 240.123 312.795 240.411C312.795 240.619 312.755 240.816 312.675 241.003C312.595 241.184 312.478 241.339 312.323 241.467C312.174 241.589 311.995 241.669 311.787 241.707ZM317.723 241.251C317.723 241.72 317.635 242.139 317.459 242.507C317.283 242.869 317.043 243.155 316.739 243.363C316.435 243.571 316.088 243.675 315.699 243.675C315.31 243.675 314.963 243.571 314.659 243.363C314.355 243.155 314.115 242.869 313.939 242.507C313.763 242.139 313.675 241.72 313.675 241.251C313.675 240.781 313.763 240.365 313.939 240.003C314.115 239.635 314.355 239.347 314.659 239.139C314.963 238.925 315.31 238.819 315.699 238.819C316.088 238.819 316.435 238.925 316.739 239.139C317.043 239.347 317.283 239.635 317.459 240.003C317.635 240.365 317.723 240.781 317.723 241.251ZM317.011 241.251C317.011 240.899 316.955 240.589 316.843 240.323C316.731 240.056 316.576 239.848 316.379 239.699C316.182 239.549 315.955 239.475 315.699 239.475C315.438 239.475 315.208 239.549 315.011 239.699C314.814 239.848 314.659 240.056 314.547 240.323C314.435 240.589 314.379 240.899 314.379 241.251C314.379 241.603 314.435 241.912 314.547 242.179C314.659 242.44 314.814 242.645 315.011 242.795C315.208 242.944 315.438 243.019 315.699 243.019C315.955 243.019 316.182 242.944 316.379 242.795C316.576 242.645 316.731 242.44 316.843 242.179C316.955 241.912 317.011 241.603 317.011 241.251ZM322.339 237.915H322.947L325.267 243.595H324.499L323.827 241.931H321.443L320.779 243.595H320.011L322.339 237.915ZM323.667 241.371L322.643 238.747L321.587 241.371H323.667ZM328.161 243.675C327.819 243.675 327.515 243.589 327.249 243.419C326.982 243.248 326.771 243.032 326.617 242.771V245.299H325.913V239.419H326.537V240.203C326.702 239.947 326.918 239.741 327.185 239.587C327.451 239.427 327.742 239.347 328.057 239.347C328.345 239.347 328.609 239.405 328.849 239.523C329.089 239.64 329.297 239.8 329.473 240.003C329.649 240.205 329.785 240.437 329.881 240.699C329.982 240.955 330.033 241.224 330.033 241.507C330.033 241.901 329.953 242.264 329.793 242.595C329.638 242.925 329.419 243.189 329.137 243.387C328.854 243.579 328.529 243.675 328.161 243.675ZM327.945 243.067C328.153 243.067 328.339 243.024 328.505 242.939C328.675 242.848 328.819 242.731 328.937 242.587C329.059 242.437 329.153 242.269 329.217 242.083C329.281 241.896 329.313 241.704 329.313 241.507C329.313 241.299 329.275 241.101 329.201 240.915C329.131 240.728 329.03 240.563 328.897 240.419C328.769 240.275 328.617 240.163 328.441 240.083C328.27 239.997 328.083 239.955 327.881 239.955C327.753 239.955 327.619 239.979 327.481 240.027C327.347 240.075 327.219 240.144 327.097 240.235C326.974 240.32 326.87 240.419 326.785 240.531C326.699 240.643 326.643 240.763 326.617 240.891V242.083C326.697 242.264 326.803 242.429 326.937 242.579C327.07 242.728 327.225 242.848 327.401 242.939C327.577 243.024 327.758 243.067 327.945 243.067ZM333.105 240.035C332.753 240.04 332.441 240.131 332.169 240.307C331.902 240.477 331.713 240.715 331.601 241.019V243.595H330.897V239.419H331.553V240.387C331.697 240.099 331.886 239.867 332.121 239.691C332.361 239.509 332.612 239.408 332.873 239.387C332.926 239.387 332.972 239.387 333.009 239.387C333.046 239.387 333.078 239.389 333.105 239.395V240.035Z" fill="#A5AEC0"/>
<path d="M356.735 239.579H353.815V238.931H357.847L354.991 244.611H354.191L356.735 239.579ZM359.191 255.595V251.259L357.319 254.595H356.879L354.999 251.259V255.595H354.279V249.915H355.039L357.095 253.603L359.159 249.915H359.911V255.595H359.191ZM360.792 254.387C360.792 254.12 360.866 253.891 361.016 253.699C361.17 253.501 361.381 253.349 361.648 253.243C361.914 253.136 362.224 253.083 362.576 253.083C362.762 253.083 362.96 253.099 363.168 253.131C363.376 253.157 363.56 253.2 363.72 253.259V252.955C363.72 252.635 363.624 252.384 363.432 252.203C363.24 252.016 362.968 251.923 362.616 251.923C362.386 251.923 362.165 251.965 361.952 252.051C361.744 252.131 361.522 252.248 361.288 252.403L361.032 251.907C361.304 251.72 361.576 251.581 361.848 251.491C362.12 251.395 362.402 251.347 362.696 251.347C363.229 251.347 363.65 251.496 363.96 251.795C364.269 252.088 364.424 252.499 364.424 253.027V254.795C364.424 254.88 364.44 254.944 364.472 254.987C364.509 255.024 364.568 255.045 364.648 255.051V255.595C364.578 255.605 364.517 255.613 364.464 255.619C364.416 255.624 364.376 255.627 364.344 255.627C364.178 255.627 364.053 255.581 363.968 255.491C363.888 255.4 363.842 255.304 363.832 255.203L363.816 254.939C363.634 255.173 363.397 255.355 363.104 255.483C362.81 255.611 362.52 255.675 362.232 255.675C361.954 255.675 361.706 255.619 361.488 255.507C361.269 255.389 361.098 255.235 360.976 255.043C360.853 254.845 360.792 254.627 360.792 254.387ZM363.512 254.683C363.576 254.608 363.626 254.533 363.664 254.459C363.701 254.379 363.72 254.312 363.72 254.259V253.739C363.554 253.675 363.381 253.627 363.2 253.595C363.018 253.557 362.84 253.539 362.664 253.539C362.306 253.539 362.016 253.611 361.792 253.755C361.573 253.893 361.464 254.085 361.464 254.331C361.464 254.464 361.498 254.595 361.568 254.723C361.642 254.845 361.749 254.947 361.888 255.027C362.032 255.107 362.208 255.147 362.416 255.147C362.634 255.147 362.842 255.104 363.04 255.019C363.237 254.928 363.394 254.816 363.512 254.683ZM365.609 256.731C365.678 256.736 365.747 256.741 365.817 256.747C365.886 256.757 365.939 256.763 365.977 256.763C366.062 256.763 366.137 256.733 366.201 256.675C366.265 256.616 366.334 256.501 366.409 256.331C366.489 256.165 366.59 255.92 366.713 255.595L364.945 251.419H365.689L367.097 254.883L368.369 251.419H369.065L367.033 256.691C366.985 256.813 366.913 256.928 366.817 257.035C366.726 257.147 366.609 257.235 366.465 257.299C366.321 257.363 366.147 257.395 365.945 257.395C365.897 257.395 365.846 257.392 365.793 257.387C365.745 257.381 365.683 257.371 365.609 257.355V256.731Z" fill="#A5AEC0"/>
<path d="M117.291 220.688L117.739 220.696V221.856H117.291V220.688ZM117.331 220.6V215.728L117.691 215.672V220.616L117.331 220.6ZM117.291 214.48H117.739V215.624L117.291 215.68V214.48ZM119.075 216.512C119.011 216.437 118.925 216.365 118.819 216.296C118.712 216.227 118.592 216.165 118.459 216.112C118.325 216.053 118.179 216.008 118.019 215.976C117.864 215.939 117.701 215.92 117.531 215.92C117.093 215.92 116.771 216.003 116.563 216.168C116.355 216.333 116.251 216.56 116.251 216.848C116.251 217.051 116.304 217.211 116.411 217.328C116.517 217.445 116.68 217.541 116.899 217.616C117.123 217.691 117.405 217.768 117.747 217.848C118.141 217.933 118.483 218.037 118.771 218.16C119.059 218.283 119.28 218.448 119.435 218.656C119.589 218.859 119.667 219.131 119.667 219.472C119.667 219.744 119.613 219.981 119.507 220.184C119.405 220.381 119.261 220.547 119.075 220.68C118.888 220.808 118.669 220.904 118.419 220.968C118.168 221.027 117.896 221.056 117.603 221.056C117.315 221.056 117.032 221.027 116.755 220.968C116.483 220.904 116.224 220.813 115.979 220.696C115.733 220.579 115.504 220.432 115.291 220.256L115.635 219.648C115.72 219.739 115.829 219.829 115.963 219.92C116.101 220.005 116.256 220.085 116.427 220.16C116.603 220.235 116.792 220.296 116.995 220.344C117.197 220.387 117.405 220.408 117.619 220.408C118.024 220.408 118.339 220.336 118.563 220.192C118.787 220.043 118.899 219.827 118.899 219.544C118.899 219.331 118.835 219.16 118.707 219.032C118.584 218.904 118.4 218.797 118.155 218.712C117.909 218.627 117.611 218.541 117.259 218.456C116.875 218.36 116.552 218.256 116.291 218.144C116.029 218.027 115.832 217.875 115.699 217.688C115.571 217.501 115.507 217.259 115.507 216.96C115.507 216.597 115.595 216.291 115.771 216.04C115.947 215.789 116.189 215.6 116.499 215.472C116.808 215.344 117.157 215.28 117.547 215.28C117.803 215.28 118.04 215.307 118.259 215.36C118.483 215.413 118.691 215.488 118.883 215.584C119.075 215.68 119.251 215.795 119.411 215.928L119.075 216.512ZM119.491 230.656C119.491 231.125 119.403 231.544 119.227 231.912C119.051 232.275 118.811 232.56 118.507 232.768C118.203 232.976 117.856 233.08 117.467 233.08C117.077 233.08 116.731 232.976 116.427 232.768C116.123 232.56 115.883 232.275 115.707 231.912C115.531 231.544 115.443 231.125 115.443 230.656C115.443 230.187 115.531 229.771 115.707 229.408C115.883 229.04 116.123 228.752 116.427 228.544C116.731 228.331 117.077 228.224 117.467 228.224C117.856 228.224 118.203 228.331 118.507 228.544C118.811 228.752 119.051 229.04 119.227 229.408C119.403 229.771 119.491 230.187 119.491 230.656ZM118.779 230.656C118.779 230.304 118.723 229.995 118.611 229.728C118.499 229.461 118.344 229.253 118.147 229.104C117.949 228.955 117.723 228.88 117.467 228.88C117.205 228.88 116.976 228.955 116.779 229.104C116.581 229.253 116.427 229.461 116.315 229.728C116.203 229.995 116.147 230.304 116.147 230.656C116.147 231.008 116.203 231.317 116.315 231.584C116.427 231.845 116.581 232.051 116.779 232.2C116.976 232.349 117.205 232.424 117.467 232.424C117.723 232.424 117.949 232.349 118.147 232.2C118.344 232.051 118.499 231.845 118.611 231.584C118.723 231.317 118.779 231.008 118.779 230.656Z" fill="#A5AEC0"/>
<line x1="145.429" y1="121.5" x2="373.56" y2="121.5" stroke="#F6F6F9"/>
<line x1="145.429" y1="153.5" x2="373.56" y2="153.5" stroke="#F6F6F9"/>
<line x1="145.429" y1="171.64" x2="373.56" y2="171.64" stroke="#C2C2D6" stroke-dasharray="4 4"/>
<line x1="145.429" y1="185.5" x2="373.56" y2="185.5" stroke="#F6F6F9"/>
<line x1="145.429" y1="217.5" x2="373.56" y2="217.5" stroke="#F6F6F9"/>
<path d="M153.696 168.933L145.429 165.702V217.235H373.544V125L363.202 130.915L355.643 146.073L346.432 153.527L341.708 150.545L332.496 158.745L323.048 150.545L315.726 153.527L307.223 148.06L300.137 163.466L293.996 165.951L283.603 186.327L275.1 187.818L267.306 198.254L259.747 189.557L250.772 187.818L242.505 190.799L235.419 181.854L227.152 194.278L218.413 187.818L210.382 196.515L202.352 200.739L194.793 180.363L178.26 157.999L170.937 176.139L161.962 164.212L153.696 168.933Z" fill="url(#paint0_linear_13001_806)"/>
<path d="M145.429 165.702L153.696 168.933L161.962 164.212L170.937 176.139L178.26 157.999L194.793 180.363L202.352 200.739L210.382 196.515L218.413 187.818L227.152 194.278L235.419 181.854L242.505 190.799L250.772 187.818L259.747 189.557L267.306 198.254L275.1 187.818L283.603 186.327L293.996 165.951L300.137 163.466L307.223 148.06L315.726 153.527L323.048 150.545L332.496 158.745L341.708 150.545L346.432 153.527L355.643 146.073L363.202 130.915L373.544 125" stroke="#635BFF" stroke-width="2"/>
<path d="M291.331 174.543C293.206 174.543 294.683 172.952 294.683 171.043C294.683 169.134 293.206 167.543 291.331 167.543C289.456 167.543 287.979 169.134 287.979 171.043C287.979 172.952 289.456 174.543 291.331 174.543Z" fill="#635BFE" stroke="white"/>
<g filter="url(#filter1_d_13001_806)">
<rect x="254.713" y="150.85" width="35.1702" height="16" rx="4" fill="#00112D"/>
</g>
<path d="M260.796 161.538L261.244 161.546V162.706H260.796V161.538ZM260.836 161.45V156.578L261.196 156.522V161.466L260.836 161.45ZM260.796 155.33H261.244V156.474L260.796 156.53V155.33ZM262.58 157.362C262.516 157.287 262.43 157.215 262.324 157.146C262.217 157.076 262.097 157.015 261.964 156.962C261.83 156.903 261.684 156.858 261.524 156.826C261.369 156.788 261.206 156.77 261.036 156.77C260.598 156.77 260.276 156.852 260.068 157.018C259.86 157.183 259.756 157.41 259.756 157.698C259.756 157.9 259.809 158.06 259.916 158.178C260.022 158.295 260.185 158.391 260.404 158.466C260.628 158.54 260.91 158.618 261.252 158.698C261.646 158.783 261.988 158.887 262.276 159.01C262.564 159.132 262.785 159.298 262.94 159.506C263.094 159.708 263.172 159.98 263.172 160.322C263.172 160.594 263.118 160.831 263.012 161.034C262.91 161.231 262.766 161.396 262.58 161.53C262.393 161.658 262.174 161.754 261.924 161.818C261.673 161.876 261.401 161.906 261.108 161.906C260.82 161.906 260.537 161.876 260.26 161.818C259.988 161.754 259.729 161.663 259.484 161.546C259.238 161.428 259.009 161.282 258.796 161.106L259.14 160.498C259.225 160.588 259.334 160.679 259.468 160.77C259.606 160.855 259.761 160.935 259.932 161.01C260.108 161.084 260.297 161.146 260.5 161.194C260.702 161.236 260.91 161.258 261.124 161.258C261.529 161.258 261.844 161.186 262.068 161.042C262.292 160.892 262.404 160.676 262.404 160.394C262.404 160.18 262.34 160.01 262.212 159.882C262.089 159.754 261.905 159.647 261.66 159.562C261.414 159.476 261.116 159.391 260.764 159.306C260.38 159.21 260.057 159.106 259.796 158.994C259.534 158.876 259.337 158.724 259.204 158.538C259.076 158.351 259.012 158.108 259.012 157.81C259.012 157.447 259.1 157.14 259.276 156.89C259.452 156.639 259.694 156.45 260.004 156.322C260.313 156.194 260.662 156.13 261.052 156.13C261.308 156.13 261.545 156.156 261.764 156.21C261.988 156.263 262.196 156.338 262.388 156.434C262.58 156.53 262.756 156.644 262.916 156.778L262.58 157.362ZM263.836 161.85C263.836 161.636 263.852 161.436 263.884 161.25C263.922 161.063 263.986 160.884 264.076 160.714C264.172 160.543 264.306 160.38 264.476 160.226C264.647 160.066 264.868 159.911 265.14 159.762C265.3 159.671 265.46 159.586 265.62 159.506C265.786 159.426 265.938 159.34 266.076 159.25C266.22 159.159 266.335 159.06 266.42 158.954C266.506 158.842 266.548 158.714 266.548 158.57C266.548 158.447 266.511 158.33 266.436 158.218C266.367 158.1 266.26 158.007 266.116 157.938C265.978 157.863 265.804 157.826 265.596 157.826C265.436 157.826 265.29 157.847 265.156 157.89C265.028 157.932 264.911 157.988 264.804 158.058C264.703 158.122 264.612 158.191 264.532 158.266C264.458 158.335 264.394 158.399 264.34 158.458L263.9 157.962C263.943 157.914 264.015 157.85 264.116 157.77C264.218 157.684 264.346 157.599 264.5 157.514C264.655 157.428 264.834 157.356 265.036 157.298C265.244 157.234 265.471 157.202 265.716 157.202C266.047 157.202 266.33 157.26 266.564 157.378C266.804 157.49 266.988 157.644 267.116 157.842C267.244 158.034 267.308 158.25 267.308 158.49C267.308 158.698 267.263 158.879 267.172 159.034C267.087 159.188 266.975 159.324 266.836 159.442C266.703 159.559 266.562 159.66 266.412 159.746C266.268 159.826 266.138 159.895 266.02 159.954C265.78 160.071 265.575 160.178 265.404 160.274C265.234 160.37 265.092 160.466 264.98 160.562C264.874 160.652 264.786 160.748 264.716 160.85C264.652 160.951 264.604 161.071 264.572 161.21H267.396V161.85H263.836ZM272.269 159.97C272.269 160.332 272.179 160.663 271.997 160.962C271.821 161.255 271.579 161.49 271.269 161.666C270.965 161.842 270.621 161.93 270.237 161.93C269.832 161.93 269.475 161.834 269.165 161.642C268.856 161.444 268.613 161.162 268.437 160.794C268.267 160.426 268.181 159.988 268.181 159.482C268.181 158.735 268.269 158.114 268.445 157.618C268.621 157.122 268.869 156.751 269.189 156.506C269.509 156.255 269.883 156.13 270.309 156.13C270.677 156.13 271.011 156.22 271.309 156.402C271.613 156.578 271.851 156.823 272.021 157.138L271.589 157.562C271.472 157.311 271.299 157.114 271.069 156.97C270.84 156.82 270.584 156.746 270.301 156.746C270.013 156.746 269.76 156.834 269.541 157.01C269.323 157.186 269.152 157.439 269.029 157.77C268.912 158.1 268.851 158.5 268.845 158.97C268.925 158.783 269.037 158.623 269.181 158.49C269.325 158.351 269.493 158.244 269.685 158.17C269.883 158.095 270.091 158.058 270.309 158.058C270.677 158.058 271.008 158.143 271.301 158.314C271.6 158.484 271.835 158.714 272.005 159.002C272.181 159.29 272.269 159.612 272.269 159.97ZM270.245 161.322C270.491 161.322 270.715 161.26 270.917 161.138C271.125 161.015 271.291 160.852 271.413 160.65C271.536 160.442 271.597 160.215 271.597 159.97C271.597 159.724 271.536 159.5 271.413 159.298C271.291 159.095 271.125 158.932 270.917 158.81C270.715 158.687 270.491 158.626 270.245 158.626C270 158.626 269.773 158.687 269.565 158.81C269.363 158.932 269.2 159.095 269.077 159.298C268.955 159.5 268.893 159.724 268.893 159.97C268.893 160.215 268.955 160.442 269.077 160.65C269.2 160.852 269.363 161.015 269.565 161.138C269.773 161.26 270 161.322 270.245 161.322ZM276.033 161.21V161.85H273.161V161.21H274.297V158.09C274.249 158.154 274.174 158.223 274.073 158.298C273.972 158.367 273.857 158.434 273.729 158.498C273.601 158.562 273.473 158.615 273.345 158.658C273.217 158.695 273.1 158.714 272.993 158.714V158.042C273.11 158.042 273.238 158.01 273.377 157.946C273.521 157.876 273.66 157.796 273.793 157.706C273.926 157.615 274.038 157.53 274.129 157.45C274.225 157.37 274.281 157.314 274.297 157.282H275.017V161.21H276.033ZM259.028 173.85V172.954H259.62V173.85H259.028ZM262.893 174.866V173.514H260.325V172.89L263.117 169.282H263.597V172.874H264.301V173.514H263.597V174.866H262.893ZM261.053 172.874H262.965V170.37L261.053 172.874ZM266.69 175.042C266.284 175.042 265.919 174.946 265.594 174.754C265.268 174.562 265.023 174.306 264.858 173.986L265.298 173.602C265.447 173.847 265.644 174.044 265.89 174.194C266.14 174.343 266.41 174.418 266.698 174.418C266.943 174.418 267.162 174.364 267.354 174.258C267.546 174.151 267.698 174.004 267.81 173.818C267.922 173.626 267.978 173.407 267.978 173.162C267.978 172.922 267.922 172.711 267.81 172.53C267.703 172.348 267.556 172.207 267.37 172.106C267.188 172.004 266.983 171.954 266.754 171.954C266.524 171.954 266.308 172.004 266.106 172.106C265.908 172.207 265.746 172.351 265.618 172.538H264.986L265.626 169.282H268.386V169.93H266.146L265.802 171.738C265.919 171.615 266.066 171.519 266.242 171.45C266.423 171.375 266.623 171.338 266.842 171.338C267.194 171.338 267.508 171.415 267.786 171.57C268.068 171.724 268.29 171.938 268.45 172.21C268.615 172.482 268.698 172.796 268.698 173.154C268.698 173.527 268.607 173.855 268.426 174.138C268.25 174.426 268.01 174.647 267.706 174.802C267.402 174.962 267.063 175.042 266.69 175.042Z" fill="white"/>
<g clip-path="url(#clip0_13001_806)">
<path d="M305.477 181.635C305.203 181.379 304.89 180.901 304.328 180.315C304.041 179.985 303.246 179.364 302.972 179.107C302.771 178.838 302.745 178.69 302.767 178.382C302.762 177.926 303.141 177.478 303.658 177.386C304.028 177.321 304.449 177.551 304.784 177.721C304.958 177.842 305.232 178.099 305.406 178.22C305.58 178.342 305.593 178.416 305.767 178.537C305.954 178.733 306.054 178.867 305.928 178.585C305.789 178.229 305.61 177.651 305.358 177.086C305.206 176.656 305.119 176.595 304.992 176.313C304.853 175.957 304.74 175.748 304.601 175.392C304.488 175.183 304.309 174.606 304.183 174.323C304.044 173.967 303.926 173.302 304.17 172.955C304.352 172.694 304.783 172.542 305.104 172.637C305.513 172.793 305.826 173.271 305.939 173.48C306.153 173.823 306.392 174.314 306.57 174.892C306.849 175.604 307.267 176.673 307.306 176.894C307.254 176.599 307.088 176.095 307.11 175.786C307.145 175.552 307.24 175.23 307.523 175.104C307.731 174.991 307.953 174.952 308.175 174.913C308.41 174.947 308.658 175.056 308.831 175.178C309.206 175.569 309.375 176.529 309.362 176.455C309.384 176.146 309.279 175.556 309.375 175.234C309.423 175.073 309.692 174.873 309.827 174.773C310.036 174.66 310.331 174.608 310.566 174.643C310.714 174.617 311.049 174.786 311.149 174.921C311.336 175.116 311.541 175.842 311.667 176.124C311.68 176.198 311.688 175.815 311.797 175.568C312.014 175.072 313.023 174.742 313.28 175.763C313.371 176.28 313.358 176.206 313.423 176.575C313.489 176.945 313.528 177.166 313.58 177.462C313.633 177.757 313.676 178.435 313.655 178.743C313.62 178.978 313.49 179.534 313.32 179.869C313.32 179.869 312.664 180.899 312.668 181.355C312.673 181.811 312.673 181.811 312.725 182.107C312.777 182.402 312.917 182.758 312.917 182.758C312.917 182.758 312.338 182.937 312.03 182.915C311.721 182.893 311.26 182.442 311.147 182.233C310.96 182.038 310.738 182.077 310.629 182.324C310.534 182.646 310.256 183.228 309.96 183.281C309.456 183.446 308.408 183.555 307.669 183.685C307.669 183.685 307.686 182.921 307.338 182.677C307.077 182.495 306.642 182.191 306.381 182.009L305.477 181.635Z" fill="white"/>
<path d="M305.477 181.635C305.203 181.379 304.89 180.901 304.328 180.315C304.041 179.985 303.246 179.364 302.972 179.107C302.771 178.838 302.745 178.69 302.767 178.382C302.762 177.926 303.141 177.478 303.658 177.386C304.028 177.321 304.449 177.551 304.784 177.721C304.958 177.842 305.232 178.099 305.406 178.22C305.58 178.342 305.593 178.416 305.767 178.537C305.954 178.733 306.054 178.867 305.928 178.585C305.789 178.229 305.61 177.651 305.358 177.086C305.206 176.656 305.119 176.595 304.992 176.313C304.853 175.957 304.74 175.748 304.601 175.392C304.488 175.183 304.309 174.606 304.183 174.323C304.044 173.967 303.926 173.302 304.17 172.955C304.352 172.694 304.783 172.542 305.104 172.637C305.513 172.793 305.826 173.271 305.939 173.48C306.153 173.823 306.392 174.314 306.57 174.892C306.849 175.604 307.267 176.673 307.306 176.894C307.254 176.599 307.088 176.095 307.11 175.786C307.145 175.552 307.24 175.23 307.523 175.104C307.731 174.991 307.953 174.952 308.175 174.913C308.41 174.947 308.658 175.056 308.831 175.178C309.206 175.569 309.375 176.529 309.362 176.455C309.384 176.146 309.279 175.556 309.375 175.234C309.423 175.073 309.692 174.873 309.827 174.773C310.036 174.66 310.331 174.608 310.566 174.643C310.714 174.617 311.049 174.786 311.149 174.921C311.336 175.116 311.541 175.842 311.667 176.124C311.68 176.198 311.688 175.815 311.797 175.568C312.014 175.072 313.023 174.742 313.28 175.763C313.371 176.28 313.358 176.206 313.423 176.575C313.489 176.945 313.528 177.166 313.58 177.462C313.633 177.757 313.676 178.435 313.655 178.743C313.62 178.978 313.49 179.534 313.32 179.869C313.32 179.869 312.664 180.899 312.668 181.355C312.673 181.811 312.673 181.811 312.725 182.107C312.777 182.402 312.917 182.758 312.917 182.758C312.917 182.758 312.338 182.937 312.03 182.915C311.721 182.893 311.26 182.442 311.147 182.233C310.96 182.038 310.738 182.077 310.629 182.324C310.534 182.646 310.256 183.228 309.96 183.281C309.456 183.446 308.408 183.555 307.669 183.685C307.669 183.685 307.686 182.921 307.338 182.677C307.077 182.495 306.642 182.191 306.381 182.009L305.477 181.635Z" stroke="black" stroke-width="0.562556" stroke-linecap="round" stroke-linejoin="round"/>
<path d="M311.651 180.774L311.207 178.263" stroke="black" stroke-width="0.562556" stroke-linecap="round"/>
<path d="M310.171 181.035L309.653 178.537" stroke="black" stroke-width="0.562556" stroke-linecap="round"/>
<path d="M308.25 178.785L308.694 181.296" stroke="black" stroke-width="0.562556" stroke-linecap="round"/>
</g>
<defs>
<filter id="filter0_d_13001_806" x="0" y="0" width="451.422" height="363" filterUnits="userSpaceOnUse" color-interpolation-filters="sRGB">
<feFlood flood-opacity="0" result="BackgroundImageFix"/>
<feColorMatrix in="SourceAlpha" type="matrix" values="0 0 0 0 0 0 0 0 0 0 0 0 0 0 0 0 0 0 127 0" result="hardAlpha"/>
<feMorphology radius="4" operator="erode" in="SourceAlpha" result="effect1_dropShadow_13001_806"/>
<feOffset dx="-20" dy="20"/>
<feGaussianBlur stdDeviation="40"/>
<feComposite in2="hardAlpha" operator="out"/>
<feColorMatrix type="matrix" values="0 0 0 0 0 0 0 0 0 0.0666667 0 0 0 0 0.176471 0 0 0 0.06 0"/>
<feBlend mode="normal" in2="BackgroundImageFix" result="effect1_dropShadow_13001_806"/>
<feBlend mode="normal" in="SourceGraphic" in2="effect1_dropShadow_13001_806" result="shape"/>
</filter>
<filter id="filter1_d_13001_806" x="158.713" y="94.8496" width="187.17" height="168" filterUnits="userSpaceOnUse" color-interpolation-filters="sRGB">
<feFlood flood-opacity="0" result="BackgroundImageFix"/>
<feColorMatrix in="SourceAlpha" type="matrix" values="0 0 0 0 0 0 0 0 0 0 0 0 0 0 0 0 0 0 127 0" result="hardAlpha"/>
<feMorphology radius="4" operator="erode" in="SourceAlpha" result="effect1_dropShadow_13001_806"/>
<feOffset dx="-20" dy="20"/>
<feGaussianBlur stdDeviation="40"/>
<feComposite in2="hardAlpha" operator="out"/>
<feColorMatrix type="matrix" values="0 0 0 0 0 0 0 0 0 0.0666667 0 0 0 0 0.176471 0 0 0 0.24 0"/>
<feBlend mode="normal" in2="BackgroundImageFix" result="effect1_dropShadow_13001_806"/>
<feBlend mode="normal" in="SourceGraphic" in2="effect1_dropShadow_13001_806" result="shape"/>
</filter>
<linearGradient id="paint0_linear_13001_806" x1="259.486" y1="125" x2="259.486" y2="217.235" gradientUnits="userSpaceOnUse">
<stop stop-color="#635BFE" stop-opacity="0.16"/>
<stop offset="1" stop-color="#635BFE" stop-opacity="0"/>
</linearGradient>
<clipPath id="clip0_13001_806">
<rect width="22.8523" height="23.9673" fill="white" transform="matrix(0.983139 -0.182858 0.165729 0.986171 284.507 168.043)"/>
</clipPath>
</defs>
</svg>
