<svg width="521" height="410" viewBox="0 0 521 410" fill="none" xmlns="http://www.w3.org/2000/svg">
<g filter="url(#filter0_d_13001_722)">
<rect x="96.126" y="56" width="368.812" height="258" rx="24" fill="white"/>
</g>
<rect x="119.439" y="220.5" width="13" height="13" rx="3.5" stroke="#E7E9EF"/>
<path d="M143.959 224.39C143.879 224.297 143.772 224.207 143.639 224.12C143.506 224.033 143.356 223.957 143.189 223.89C143.022 223.817 142.839 223.76 142.639 223.72C142.446 223.673 142.242 223.65 142.029 223.65C141.482 223.65 141.079 223.753 140.819 223.96C140.559 224.167 140.429 224.45 140.429 224.81C140.429 225.063 140.496 225.263 140.629 225.41C140.762 225.557 140.966 225.677 141.239 225.77C141.519 225.863 141.872 225.96 142.299 226.06C142.792 226.167 143.219 226.297 143.579 226.45C143.939 226.603 144.216 226.81 144.409 227.07C144.602 227.323 144.699 227.663 144.699 228.09C144.699 228.43 144.632 228.727 144.499 228.98C144.372 229.227 144.192 229.433 143.959 229.6C143.726 229.76 143.452 229.88 143.139 229.96C142.826 230.033 142.486 230.07 142.119 230.07C141.759 230.07 141.406 230.033 141.059 229.96C140.719 229.88 140.396 229.767 140.089 229.62C139.782 229.473 139.496 229.29 139.229 229.07L139.659 228.31C139.766 228.423 139.902 228.537 140.069 228.65C140.242 228.757 140.436 228.857 140.649 228.95C140.869 229.043 141.106 229.12 141.359 229.18C141.612 229.233 141.872 229.26 142.139 229.26C142.646 229.26 143.039 229.17 143.319 228.99C143.599 228.803 143.739 228.533 143.739 228.18C143.739 227.913 143.659 227.7 143.499 227.54C143.346 227.38 143.116 227.247 142.809 227.14C142.502 227.033 142.129 226.927 141.689 226.82C141.209 226.7 140.806 226.57 140.479 226.43C140.152 226.283 139.906 226.093 139.739 225.86C139.579 225.627 139.499 225.323 139.499 224.95C139.499 224.497 139.609 224.113 139.829 223.8C140.049 223.487 140.352 223.25 140.739 223.09C141.126 222.93 141.562 222.85 142.049 222.85C142.369 222.85 142.666 222.883 142.939 222.95C143.219 223.017 143.479 223.11 143.719 223.23C143.959 223.35 144.179 223.493 144.379 223.66L143.959 224.39ZM145.333 228.49C145.333 228.157 145.426 227.87 145.613 227.63C145.806 227.383 146.069 227.193 146.403 227.06C146.736 226.927 147.123 226.86 147.563 226.86C147.796 226.86 148.043 226.88 148.303 226.92C148.563 226.953 148.793 227.007 148.993 227.08V226.7C148.993 226.3 148.873 225.987 148.633 225.76C148.393 225.527 148.053 225.41 147.613 225.41C147.326 225.41 147.049 225.463 146.783 225.57C146.523 225.67 146.246 225.817 145.953 226.01L145.633 225.39C145.973 225.157 146.313 224.983 146.653 224.87C146.993 224.75 147.346 224.69 147.713 224.69C148.379 224.69 148.906 224.877 149.293 225.25C149.679 225.617 149.873 226.13 149.873 226.79V229C149.873 229.107 149.893 229.187 149.933 229.24C149.979 229.287 150.053 229.313 150.153 229.32V230C150.066 230.013 149.989 230.023 149.923 230.03C149.863 230.037 149.813 230.04 149.773 230.04C149.566 230.04 149.409 229.983 149.303 229.87C149.203 229.757 149.146 229.637 149.133 229.51L149.113 229.18C148.886 229.473 148.589 229.7 148.223 229.86C147.856 230.02 147.493 230.1 147.133 230.1C146.786 230.1 146.476 230.03 146.203 229.89C145.929 229.743 145.716 229.55 145.563 229.31C145.409 229.063 145.333 228.79 145.333 228.49ZM148.733 228.86C148.813 228.767 148.876 228.673 148.923 228.58C148.969 228.48 148.993 228.397 148.993 228.33V227.68C148.786 227.6 148.569 227.54 148.343 227.5C148.116 227.453 147.893 227.43 147.673 227.43C147.226 227.43 146.863 227.52 146.583 227.7C146.309 227.873 146.173 228.113 146.173 228.42C146.173 228.587 146.216 228.75 146.303 228.91C146.396 229.063 146.529 229.19 146.703 229.29C146.883 229.39 147.103 229.44 147.363 229.44C147.636 229.44 147.896 229.387 148.143 229.28C148.389 229.167 148.586 229.027 148.733 228.86ZM152.614 230L150.564 224.78H151.484L153.124 229.16L154.764 224.78H155.624L153.574 230H152.614ZM158.639 230.1C158.245 230.1 157.885 230.03 157.559 229.89C157.239 229.743 156.959 229.547 156.719 229.3C156.485 229.047 156.302 228.757 156.169 228.43C156.042 228.103 155.979 227.757 155.979 227.39C155.979 226.897 156.092 226.447 156.319 226.04C156.545 225.633 156.859 225.307 157.259 225.06C157.665 224.813 158.129 224.69 158.649 224.69C159.175 224.69 159.632 224.817 160.019 225.07C160.412 225.317 160.715 225.643 160.929 226.05C161.149 226.45 161.259 226.883 161.259 227.35C161.259 227.417 161.255 227.483 161.249 227.55C161.249 227.61 161.245 227.657 161.239 227.69H156.909C156.935 228.03 157.029 228.333 157.189 228.6C157.355 228.86 157.569 229.067 157.829 229.22C158.089 229.367 158.369 229.44 158.669 229.44C158.989 229.44 159.289 229.36 159.569 229.2C159.855 229.04 160.052 228.83 160.159 228.57L160.919 228.78C160.805 229.033 160.635 229.26 160.409 229.46C160.189 229.66 159.925 229.817 159.619 229.93C159.319 230.043 158.992 230.1 158.639 230.1ZM156.879 227.08H160.439C160.412 226.74 160.315 226.44 160.149 226.18C159.982 225.92 159.769 225.717 159.509 225.57C159.249 225.423 158.962 225.35 158.649 225.35C158.342 225.35 158.059 225.423 157.799 225.57C157.539 225.717 157.325 225.92 157.159 226.18C156.999 226.44 156.905 226.74 156.879 227.08ZM167.076 230.1C166.683 230.1 166.323 230.03 165.996 229.89C165.676 229.743 165.396 229.543 165.156 229.29C164.923 229.037 164.739 228.747 164.606 228.42C164.479 228.093 164.416 227.747 164.416 227.38C164.416 226.887 164.526 226.437 164.746 226.03C164.966 225.623 165.276 225.3 165.676 225.06C166.076 224.813 166.539 224.69 167.066 224.69C167.579 224.69 168.026 224.807 168.406 225.04C168.793 225.267 169.079 225.573 169.266 225.96L168.406 226.23C168.273 225.983 168.086 225.793 167.846 225.66C167.606 225.52 167.339 225.45 167.046 225.45C166.726 225.45 166.433 225.533 166.166 225.7C165.906 225.867 165.699 226.097 165.546 226.39C165.393 226.677 165.316 227.007 165.316 227.38C165.316 227.747 165.393 228.08 165.546 228.38C165.706 228.673 165.916 228.907 166.176 229.08C166.443 229.253 166.736 229.34 167.056 229.34C167.263 229.34 167.459 229.303 167.646 229.23C167.839 229.157 168.006 229.06 168.146 228.94C168.293 228.813 168.393 228.677 168.446 228.53L169.306 228.79C169.199 229.043 169.036 229.27 168.816 229.47C168.603 229.663 168.346 229.817 168.046 229.93C167.753 230.043 167.429 230.1 167.076 230.1ZM169.893 228.49C169.893 228.157 169.987 227.87 170.173 227.63C170.367 227.383 170.63 227.193 170.963 227.06C171.297 226.927 171.683 226.86 172.123 226.86C172.357 226.86 172.603 226.88 172.863 226.92C173.123 226.953 173.353 227.007 173.553 227.08V226.7C173.553 226.3 173.433 225.987 173.193 225.76C172.953 225.527 172.613 225.41 172.173 225.41C171.887 225.41 171.61 225.463 171.343 225.57C171.083 225.67 170.807 225.817 170.513 226.01L170.193 225.39C170.533 225.157 170.873 224.983 171.213 224.87C171.553 224.75 171.907 224.69 172.273 224.69C172.94 224.69 173.467 224.877 173.853 225.25C174.24 225.617 174.433 226.13 174.433 226.79V229C174.433 229.107 174.453 229.187 174.493 229.24C174.54 229.287 174.613 229.313 174.713 229.32V230C174.627 230.013 174.55 230.023 174.483 230.03C174.423 230.037 174.373 230.04 174.333 230.04C174.127 230.04 173.97 229.983 173.863 229.87C173.763 229.757 173.707 229.637 173.693 229.51L173.673 229.18C173.447 229.473 173.15 229.7 172.783 229.86C172.417 230.02 172.053 230.1 171.693 230.1C171.347 230.1 171.037 230.03 170.763 229.89C170.49 229.743 170.277 229.55 170.123 229.31C169.97 229.063 169.893 228.79 169.893 228.49ZM173.293 228.86C173.373 228.767 173.437 228.673 173.483 228.58C173.53 228.48 173.553 228.397 173.553 228.33V227.68C173.347 227.6 173.13 227.54 172.903 227.5C172.677 227.453 172.453 227.43 172.233 227.43C171.787 227.43 171.423 227.52 171.143 227.7C170.87 227.873 170.733 228.113 170.733 228.42C170.733 228.587 170.777 228.75 170.863 228.91C170.957 229.063 171.09 229.19 171.263 229.29C171.443 229.39 171.663 229.44 171.923 229.44C172.197 229.44 172.457 229.387 172.703 229.28C172.95 229.167 173.147 229.027 173.293 228.86ZM178.6 225.55C178.16 225.557 177.77 225.67 177.43 225.89C177.097 226.103 176.86 226.4 176.72 226.78V230H175.84V224.78H176.66V225.99C176.84 225.63 177.077 225.34 177.37 225.12C177.67 224.893 177.984 224.767 178.31 224.74C178.377 224.74 178.434 224.74 178.48 224.74C178.527 224.74 178.567 224.743 178.6 224.75V225.55ZM179.036 227.4C179.036 226.907 179.136 226.457 179.336 226.05C179.542 225.637 179.822 225.307 180.176 225.06C180.536 224.813 180.946 224.69 181.406 224.69C181.826 224.69 182.202 224.8 182.536 225.02C182.869 225.24 183.129 225.507 183.316 225.82V222.7H184.196V229C184.196 229.107 184.216 229.187 184.256 229.24C184.302 229.287 184.376 229.313 184.476 229.32V230C184.309 230.027 184.179 230.04 184.086 230.04C183.912 230.04 183.759 229.98 183.626 229.86C183.499 229.74 183.436 229.607 183.436 229.46V229.02C183.229 229.353 182.952 229.617 182.606 229.81C182.259 230.003 181.899 230.1 181.526 230.1C181.166 230.1 180.832 230.03 180.526 229.89C180.226 229.743 179.962 229.543 179.736 229.29C179.516 229.037 179.342 228.75 179.216 228.43C179.096 228.103 179.036 227.76 179.036 227.4ZM183.316 228.17V226.67C183.236 226.443 183.106 226.24 182.926 226.06C182.746 225.873 182.542 225.727 182.316 225.62C182.096 225.507 181.876 225.45 181.656 225.45C181.396 225.45 181.159 225.507 180.946 225.62C180.739 225.727 180.559 225.873 180.406 226.06C180.259 226.24 180.146 226.447 180.066 226.68C179.986 226.913 179.946 227.157 179.946 227.41C179.946 227.67 179.989 227.917 180.076 228.15C180.169 228.383 180.296 228.59 180.456 228.77C180.622 228.95 180.812 229.09 181.026 229.19C181.246 229.29 181.482 229.34 181.736 229.34C181.896 229.34 182.059 229.31 182.226 229.25C182.399 229.19 182.562 229.107 182.716 229C182.869 228.893 182.999 228.77 183.106 228.63C183.212 228.483 183.282 228.33 183.316 228.17Z" fill="#8D98AF"/>
<path d="M119.251 86.12C119.251 85.7733 119.31 85.4347 119.427 85.104C119.55 84.768 119.726 84.464 119.955 84.192C120.19 83.9147 120.475 83.696 120.811 83.536C121.147 83.3707 121.528 83.288 121.955 83.288C122.462 83.288 122.896 83.4053 123.259 83.64C123.622 83.8693 123.891 84.1653 124.067 84.528L123.499 84.896C123.387 84.656 123.243 84.4667 123.067 84.328C122.896 84.184 122.71 84.0827 122.507 84.024C122.31 83.9653 122.115 83.936 121.923 83.936C121.608 83.936 121.328 84 121.083 84.128C120.843 84.256 120.64 84.4267 120.475 84.64C120.31 84.8533 120.184 85.0933 120.099 85.36C120.019 85.6213 119.979 85.8853 119.979 86.152C119.979 86.4453 120.027 86.728 120.123 87C120.224 87.272 120.363 87.512 120.539 87.72C120.715 87.928 120.923 88.0933 121.163 88.216C121.403 88.3387 121.664 88.4 121.947 88.4C122.144 88.4 122.347 88.3653 122.555 88.296C122.763 88.2267 122.958 88.12 123.139 87.976C123.32 87.8267 123.464 87.6347 123.571 87.4L124.171 87.728C124.054 88.0107 123.872 88.2507 123.627 88.448C123.382 88.6453 123.107 88.7947 122.803 88.896C122.504 88.9973 122.208 89.048 121.915 89.048C121.526 89.048 121.168 88.9653 120.843 88.8C120.518 88.6293 120.235 88.4053 119.995 88.128C119.76 87.8453 119.576 87.5307 119.443 87.184C119.315 86.832 119.251 86.4773 119.251 86.12ZM126.642 83.32H127.25L129.57 89H128.802L128.13 87.336H125.746L125.082 89H124.314L126.642 83.32ZM127.97 86.776L126.946 84.152L125.89 86.776H127.97ZM130.248 89V83.32H132.68C132.931 83.32 133.16 83.3733 133.368 83.48C133.576 83.5813 133.757 83.72 133.912 83.896C134.067 84.0667 134.187 84.2613 134.272 84.48C134.357 84.6933 134.4 84.912 134.4 85.136C134.4 85.3973 134.349 85.6453 134.248 85.88C134.152 86.1147 134.013 86.3147 133.832 86.48C133.656 86.6453 133.448 86.76 133.208 86.824L134.584 89H133.768L132.472 86.96H130.968V89H130.248ZM130.968 86.32H132.688C132.885 86.32 133.056 86.2667 133.2 86.16C133.349 86.048 133.464 85.9013 133.544 85.72C133.629 85.5387 133.672 85.344 133.672 85.136C133.672 84.9227 133.624 84.728 133.528 84.552C133.432 84.3707 133.307 84.2267 133.152 84.12C132.997 84.0133 132.827 83.96 132.64 83.96H130.968V86.32ZM135.426 89V83.32H137.394C138.002 83.32 138.509 83.448 138.914 83.704C139.325 83.9547 139.631 84.296 139.834 84.728C140.037 85.1547 140.138 85.6293 140.138 86.152C140.138 86.728 140.026 87.2293 139.802 87.656C139.578 88.0827 139.261 88.4133 138.85 88.648C138.439 88.8827 137.954 89 137.394 89H135.426ZM139.41 86.152C139.41 85.7253 139.33 85.3467 139.17 85.016C139.015 84.6853 138.789 84.4267 138.49 84.24C138.191 84.0533 137.826 83.96 137.394 83.96H136.146V88.36H137.394C137.831 88.36 138.199 88.264 138.498 88.072C138.797 87.8747 139.023 87.6107 139.178 87.28C139.333 86.944 139.41 86.568 139.41 86.152ZM143.736 84.648V89H143.016V83.32H143.624L147.096 87.76V83.328H147.816V89H147.16L143.736 84.648ZM151.436 89.04C150.983 89.04 150.601 88.9627 150.292 88.808C149.983 88.648 149.735 88.4347 149.548 88.168C149.361 87.896 149.225 87.5893 149.14 87.248C149.055 86.9067 149.012 86.5547 149.012 86.192V83.32H149.732V86.192C149.732 86.4693 149.759 86.7413 149.812 87.008C149.871 87.2693 149.964 87.504 150.092 87.712C150.22 87.92 150.393 88.0853 150.612 88.208C150.831 88.3307 151.103 88.392 151.428 88.392C151.759 88.392 152.033 88.3307 152.252 88.208C152.471 88.08 152.644 87.912 152.772 87.704C152.9 87.4907 152.991 87.2533 153.044 86.992C153.103 86.7307 153.132 86.464 153.132 86.192V83.32H153.852V86.192C153.852 86.576 153.807 86.9413 153.716 87.288C153.631 87.6293 153.492 87.9307 153.3 88.192C153.108 88.4533 152.857 88.6613 152.548 88.816C152.244 88.9653 151.873 89.04 151.436 89.04ZM159.963 89V84.664L158.091 88H157.651L155.771 84.664V89H155.051V83.32H155.811L157.867 87.008L159.931 83.32H160.683V89H159.963ZM166.323 87.536C166.323 87.8293 166.249 88.0853 166.099 88.304C165.95 88.5227 165.747 88.6933 165.491 88.816C165.241 88.9387 164.963 89 164.659 89H161.963V83.32H164.787C165.054 83.32 165.283 83.392 165.475 83.536C165.673 83.6747 165.822 83.856 165.923 84.08C166.03 84.2987 166.083 84.528 166.083 84.768C166.083 85.0453 166.011 85.3067 165.867 85.552C165.729 85.792 165.529 85.9707 165.267 86.088C165.593 86.184 165.849 86.3627 166.035 86.624C166.227 86.88 166.323 87.184 166.323 87.536ZM165.595 87.408C165.595 87.232 165.555 87.0693 165.475 86.92C165.401 86.7707 165.297 86.6507 165.163 86.56C165.035 86.4693 164.886 86.424 164.715 86.424H162.683V88.376H164.659C164.835 88.376 164.993 88.3307 165.131 88.24C165.275 88.1493 165.387 88.032 165.467 87.888C165.553 87.7387 165.595 87.5787 165.595 87.408ZM162.683 83.944V85.84H164.491C164.662 85.84 164.811 85.7973 164.939 85.712C165.073 85.6267 165.177 85.512 165.251 85.368C165.331 85.224 165.371 85.0667 165.371 84.896C165.371 84.7147 165.334 84.5547 165.259 84.416C165.19 84.272 165.091 84.1573 164.963 84.072C164.841 83.9867 164.699 83.944 164.539 83.944H162.683ZM171.107 88.36V89H167.251V83.32H171.035V83.96H167.971V85.8H170.635V86.4H167.971V88.36H171.107ZM172.014 89V83.32H174.446C174.697 83.32 174.926 83.3733 175.134 83.48C175.342 83.5813 175.524 83.72 175.678 83.896C175.833 84.0667 175.953 84.2613 176.038 84.48C176.124 84.6933 176.166 84.912 176.166 85.136C176.166 85.3973 176.116 85.6453 176.014 85.88C175.918 86.1147 175.78 86.3147 175.598 86.48C175.422 86.6453 175.214 86.76 174.974 86.824L176.35 89H175.534L174.238 86.96H172.734V89H172.014ZM172.734 86.32H174.454C174.652 86.32 174.822 86.2667 174.966 86.16C175.116 86.048 175.23 85.9013 175.31 85.72C175.396 85.5387 175.438 85.344 175.438 85.136C175.438 84.9227 175.39 84.728 175.294 84.552C175.198 84.3707 175.073 84.2267 174.918 84.12C174.764 84.0133 174.593 83.96 174.406 83.96H172.734V86.32Z" fill="#8D98AF"/>
<rect x="119.439" y="96.5" width="339" height="39" rx="11.5" stroke="#E7E9EF"/>
<circle cx="137.939" cy="116" r="3" fill="black"/>
<circle cx="147.939" cy="116" r="3" fill="black"/>
<circle cx="157.939" cy="116" r="3" fill="black"/>
<circle cx="167.939" cy="116" r="3" fill="black"/>
<circle cx="185.939" cy="116" r="3" fill="black"/>
<circle cx="195.939" cy="116" r="3" fill="black"/>
<circle cx="205.939" cy="116" r="3" fill="black"/>
<circle cx="215.939" cy="116" r="3" fill="black"/>
<circle cx="233.939" cy="116" r="3" fill="black"/>
<circle cx="243.939" cy="116" r="3" fill="black"/>
<circle cx="253.939" cy="116" r="3" fill="black"/>
<circle cx="263.939" cy="116" r="3" fill="black"/>
<path d="M284.903 119.38V120.5H279.877V119.38H281.865V113.92C281.781 114.032 281.65 114.153 281.473 114.284C281.296 114.405 281.095 114.522 280.871 114.634C280.647 114.746 280.423 114.839 280.199 114.914C279.975 114.979 279.77 115.012 279.583 115.012V113.836C279.788 113.836 280.012 113.78 280.255 113.668C280.507 113.547 280.75 113.407 280.983 113.248C281.216 113.089 281.412 112.94 281.571 112.8C281.739 112.66 281.837 112.562 281.865 112.506H283.125V119.38H284.903ZM285.704 120.5C285.704 120.127 285.732 119.777 285.788 119.45C285.853 119.123 285.965 118.811 286.124 118.512C286.292 118.213 286.525 117.929 286.824 117.658C287.122 117.378 287.51 117.107 287.986 116.846C288.266 116.687 288.546 116.538 288.826 116.398C289.115 116.258 289.381 116.109 289.624 115.95C289.876 115.791 290.076 115.619 290.226 115.432C290.375 115.236 290.45 115.012 290.45 114.76C290.45 114.545 290.384 114.34 290.254 114.144C290.132 113.939 289.946 113.775 289.694 113.654C289.451 113.523 289.148 113.458 288.784 113.458C288.504 113.458 288.247 113.495 288.014 113.57C287.79 113.645 287.584 113.743 287.398 113.864C287.22 113.976 287.062 114.097 286.922 114.228C286.791 114.349 286.679 114.461 286.586 114.564L285.816 113.696C285.89 113.612 286.016 113.5 286.194 113.36C286.371 113.211 286.595 113.061 286.866 112.912C287.136 112.763 287.449 112.637 287.804 112.534C288.168 112.422 288.564 112.366 288.994 112.366C289.572 112.366 290.067 112.469 290.478 112.674C290.898 112.87 291.22 113.141 291.444 113.486C291.668 113.822 291.78 114.2 291.78 114.62C291.78 114.984 291.7 115.301 291.542 115.572C291.392 115.843 291.196 116.081 290.954 116.286C290.72 116.491 290.473 116.669 290.212 116.818C289.96 116.958 289.731 117.079 289.526 117.182C289.106 117.387 288.746 117.574 288.448 117.742C288.149 117.91 287.902 118.078 287.706 118.246C287.519 118.405 287.365 118.573 287.244 118.75C287.132 118.927 287.048 119.137 286.992 119.38H291.934V120.5H285.704ZM296.122 122.586C295.413 122.586 294.773 122.418 294.204 122.082C293.635 121.746 293.205 121.298 292.916 120.738L293.686 120.066C293.947 120.495 294.293 120.841 294.722 121.102C295.161 121.363 295.632 121.494 296.136 121.494C296.565 121.494 296.948 121.401 297.284 121.214C297.62 121.027 297.886 120.771 298.082 120.444C298.278 120.108 298.376 119.725 298.376 119.296C298.376 118.876 298.278 118.507 298.082 118.19C297.895 117.873 297.639 117.625 297.312 117.448C296.995 117.271 296.635 117.182 296.234 117.182C295.833 117.182 295.455 117.271 295.1 117.448C294.755 117.625 294.47 117.877 294.246 118.204H293.14L294.26 112.506H299.09V113.64H295.17L294.568 116.804C294.773 116.589 295.03 116.421 295.338 116.3C295.655 116.169 296.005 116.104 296.388 116.104C297.004 116.104 297.555 116.239 298.04 116.51C298.535 116.781 298.922 117.154 299.202 117.63C299.491 118.106 299.636 118.657 299.636 119.282C299.636 119.935 299.477 120.509 299.16 121.004C298.852 121.508 298.432 121.895 297.9 122.166C297.368 122.446 296.775 122.586 296.122 122.586ZM304.996 117.196C305.397 117.261 305.742 117.411 306.032 117.644C306.321 117.868 306.545 118.157 306.704 118.512C306.862 118.857 306.942 119.249 306.942 119.688C306.942 120.257 306.802 120.757 306.522 121.186C306.251 121.625 305.864 121.961 305.36 122.194C304.856 122.437 304.268 122.558 303.596 122.558C302.886 122.558 302.261 122.423 301.72 122.152C301.188 121.891 300.772 121.517 300.474 121.032L301.3 120.206C301.514 120.579 301.804 120.878 302.168 121.102C302.541 121.326 303.017 121.438 303.596 121.438C304.24 121.438 304.744 121.289 305.108 120.99C305.481 120.701 305.668 120.267 305.668 119.688C305.668 119.1 305.467 118.633 305.066 118.288C304.674 117.933 304.1 117.756 303.344 117.756H302.98V116.72H303.372C304.044 116.72 304.557 116.557 304.912 116.23C305.276 115.903 305.458 115.497 305.458 115.012C305.458 114.676 305.378 114.401 305.22 114.186C305.061 113.971 304.846 113.813 304.576 113.71C304.305 113.598 303.992 113.542 303.638 113.542C303.124 113.542 302.672 113.654 302.28 113.878C301.897 114.093 301.598 114.396 301.384 114.788L300.628 114.004C300.796 113.687 301.034 113.411 301.342 113.178C301.659 112.945 302.023 112.763 302.434 112.632C302.854 112.501 303.297 112.436 303.764 112.436C304.352 112.436 304.87 112.539 305.318 112.744C305.775 112.949 306.13 113.239 306.382 113.612C306.634 113.985 306.76 114.424 306.76 114.928C306.76 115.292 306.69 115.637 306.55 115.964C306.41 116.281 306.204 116.552 305.934 116.776C305.672 116.991 305.36 117.131 304.996 117.196Z" fill="black"/>
<path d="M435.644 111.131H430.236V120.869H435.644V111.131Z" fill="#FF5F00"/>
<path d="M430.578 116C430.578 115.062 430.79 114.136 431.199 113.293C431.608 112.449 432.203 111.71 432.939 111.131C432.027 110.413 430.932 109.966 429.779 109.842C428.626 109.718 427.461 109.922 426.418 110.429C425.375 110.937 424.496 111.729 423.881 112.714C423.265 113.699 422.939 114.838 422.939 116C422.939 117.162 423.265 118.301 423.881 119.286C424.496 120.271 425.375 121.063 426.418 121.57C427.461 122.078 428.626 122.282 429.779 122.158C430.932 122.034 432.027 121.587 432.939 120.869C432.203 120.29 431.608 119.551 431.199 118.707C430.79 117.864 430.578 116.938 430.578 116Z" fill="#EB001B"/>
<path d="M442.939 116C442.939 117.162 442.613 118.301 441.997 119.286C441.382 120.271 440.503 121.063 439.46 121.57C438.417 122.078 437.252 122.282 436.099 122.158C434.946 122.034 433.851 121.587 432.939 120.869C433.675 120.29 434.269 119.55 434.678 118.707C435.087 117.863 435.3 116.938 435.3 116C435.3 115.062 435.087 114.137 434.678 113.293C434.269 112.45 433.675 111.71 432.939 111.131C433.851 110.413 434.946 109.966 436.099 109.842C437.252 109.718 438.417 109.922 439.46 110.429C440.503 110.937 441.382 111.729 441.997 112.714C442.613 113.699 442.939 114.838 442.939 116Z" fill="#F79E1B"/>
<path d="M442.348 119.838V119.638H442.428V119.598H442.224V119.638H442.304V119.838H442.348ZM442.745 119.838V119.597H442.682L442.61 119.763L442.538 119.597H442.476V119.838H442.52V119.656L442.587 119.813H442.633L442.701 119.656V119.838H442.745Z" fill="#F79E1B"/>
<path d="M119.619 157V151.32H121.587C122.195 151.32 122.702 151.448 123.107 151.704C123.518 151.955 123.824 152.296 124.027 152.728C124.23 153.155 124.331 153.629 124.331 154.152C124.331 154.728 124.219 155.229 123.995 155.656C123.771 156.083 123.454 156.413 123.043 156.648C122.632 156.883 122.147 157 121.587 157H119.619ZM123.603 154.152C123.603 153.725 123.523 153.347 123.363 153.016C123.208 152.685 122.982 152.427 122.683 152.24C122.384 152.053 122.019 151.96 121.587 151.96H120.339V156.36H121.587C122.024 156.36 122.392 156.264 122.691 156.072C122.99 155.875 123.216 155.611 123.371 155.28C123.526 154.944 123.603 154.568 123.603 154.152ZM126.79 151.32H127.398L129.718 157H128.95L128.278 155.336H125.894L125.23 157H124.462L126.79 151.32ZM128.118 154.776L127.094 152.152L126.038 154.776H128.118ZM133.953 151.96H131.993V157H131.273V151.96H129.313V151.32H133.953V151.96ZM138.547 156.36V157H134.691V151.32H138.475V151.96H135.411V153.8H138.075V154.4H135.411V156.36H138.547Z" fill="#8D98AF"/>
<rect x="119.439" y="164.5" width="163" height="39" rx="11.5" stroke="#E7E9EF"/>
<path d="M140.903 187.38V188.5H135.877V187.38H137.865V181.92C137.781 182.032 137.65 182.153 137.473 182.284C137.296 182.405 137.095 182.522 136.871 182.634C136.647 182.746 136.423 182.839 136.199 182.914C135.975 182.979 135.77 183.012 135.583 183.012V181.836C135.788 181.836 136.012 181.78 136.255 181.668C136.507 181.547 136.75 181.407 136.983 181.248C137.216 181.089 137.412 180.94 137.571 180.8C137.739 180.66 137.837 180.562 137.865 180.506H139.125V187.38H140.903ZM141.704 188.5C141.704 188.127 141.732 187.777 141.788 187.45C141.853 187.123 141.965 186.811 142.124 186.512C142.292 186.213 142.525 185.929 142.824 185.658C143.122 185.378 143.51 185.107 143.986 184.846C144.266 184.687 144.546 184.538 144.826 184.398C145.115 184.258 145.381 184.109 145.624 183.95C145.876 183.791 146.076 183.619 146.226 183.432C146.375 183.236 146.45 183.012 146.45 182.76C146.45 182.545 146.384 182.34 146.254 182.144C146.132 181.939 145.946 181.775 145.694 181.654C145.451 181.523 145.148 181.458 144.784 181.458C144.504 181.458 144.247 181.495 144.014 181.57C143.79 181.645 143.584 181.743 143.398 181.864C143.22 181.976 143.062 182.097 142.922 182.228C142.791 182.349 142.679 182.461 142.586 182.564L141.816 181.696C141.89 181.612 142.016 181.5 142.194 181.36C142.371 181.211 142.595 181.061 142.866 180.912C143.136 180.763 143.449 180.637 143.804 180.534C144.168 180.422 144.564 180.366 144.994 180.366C145.572 180.366 146.067 180.469 146.478 180.674C146.898 180.87 147.22 181.141 147.444 181.486C147.668 181.822 147.78 182.2 147.78 182.62C147.78 182.984 147.7 183.301 147.542 183.572C147.392 183.843 147.196 184.081 146.954 184.286C146.72 184.491 146.473 184.669 146.212 184.818C145.96 184.958 145.731 185.079 145.526 185.182C145.106 185.387 144.746 185.574 144.448 185.742C144.149 185.91 143.902 186.078 143.706 186.246C143.519 186.405 143.365 186.573 143.244 186.75C143.132 186.927 143.048 187.137 142.992 187.38H147.934V188.5H141.704ZM160.325 178.56L153.605 188.5H152.233L158.939 178.56H160.325ZM164.577 188.5C164.577 188.127 164.605 187.777 164.661 187.45C164.727 187.123 164.839 186.811 164.997 186.512C165.165 186.213 165.399 185.929 165.697 185.658C165.996 185.378 166.383 185.107 166.859 184.846C167.139 184.687 167.419 184.538 167.699 184.398C167.989 184.258 168.255 184.109 168.497 183.95C168.749 183.791 168.95 183.619 169.099 183.432C169.249 183.236 169.323 183.012 169.323 182.76C169.323 182.545 169.258 182.34 169.127 182.144C169.006 181.939 168.819 181.775 168.567 181.654C168.325 181.523 168.021 181.458 167.657 181.458C167.377 181.458 167.121 181.495 166.887 181.57C166.663 181.645 166.458 181.743 166.271 181.864C166.094 181.976 165.935 182.097 165.795 182.228C165.665 182.349 165.553 182.461 165.459 182.564L164.689 181.696C164.764 181.612 164.89 181.5 165.067 181.36C165.245 181.211 165.469 181.061 165.739 180.912C166.01 180.763 166.323 180.637 166.677 180.534C167.041 180.422 167.438 180.366 167.867 180.366C168.446 180.366 168.941 180.469 169.351 180.674C169.771 180.87 170.093 181.141 170.317 181.486C170.541 181.822 170.653 182.2 170.653 182.62C170.653 182.984 170.574 183.301 170.415 183.572C170.266 183.843 170.07 184.081 169.827 184.286C169.594 184.491 169.347 184.669 169.085 184.818C168.833 184.958 168.605 185.079 168.399 185.182C167.979 185.387 167.62 185.574 167.321 185.742C167.023 185.91 166.775 186.078 166.579 186.246C166.393 186.405 166.239 186.573 166.117 186.75C166.005 186.927 165.921 187.137 165.865 187.38H170.807V188.5H164.577ZM179.167 184.398C179.167 185.219 179.013 185.952 178.705 186.596C178.397 187.231 177.977 187.73 177.445 188.094C176.913 188.458 176.307 188.64 175.625 188.64C174.944 188.64 174.337 188.458 173.805 188.094C173.273 187.73 172.853 187.231 172.545 186.596C172.237 185.952 172.083 185.219 172.083 184.398C172.083 183.577 172.237 182.849 172.545 182.214C172.853 181.57 173.273 181.066 173.805 180.702C174.337 180.329 174.944 180.142 175.625 180.142C176.307 180.142 176.913 180.329 177.445 180.702C177.977 181.066 178.397 181.57 178.705 182.214C179.013 182.849 179.167 183.577 179.167 184.398ZM177.921 184.398C177.921 183.782 177.823 183.241 177.627 182.774C177.431 182.307 177.161 181.943 176.815 181.682C176.47 181.421 176.073 181.29 175.625 181.29C175.168 181.29 174.767 181.421 174.421 181.682C174.076 181.943 173.805 182.307 173.609 182.774C173.413 183.241 173.315 183.782 173.315 184.398C173.315 185.014 173.413 185.555 173.609 186.022C173.805 186.479 174.076 186.839 174.421 187.1C174.767 187.361 175.168 187.492 175.625 187.492C176.073 187.492 176.47 187.361 176.815 187.1C177.161 186.839 177.431 186.479 177.627 186.022C177.823 185.555 177.921 185.014 177.921 184.398ZM180.389 188.5C180.389 188.127 180.417 187.777 180.473 187.45C180.538 187.123 180.65 186.811 180.809 186.512C180.977 186.213 181.21 185.929 181.509 185.658C181.808 185.378 182.195 185.107 182.671 184.846C182.951 184.687 183.231 184.538 183.511 184.398C183.8 184.258 184.066 184.109 184.309 183.95C184.561 183.791 184.762 183.619 184.911 183.432C185.06 183.236 185.135 183.012 185.135 182.76C185.135 182.545 185.07 182.34 184.939 182.144C184.818 181.939 184.631 181.775 184.379 181.654C184.136 181.523 183.833 181.458 183.469 181.458C183.189 181.458 182.932 181.495 182.699 181.57C182.475 181.645 182.27 181.743 182.083 181.864C181.906 181.976 181.747 182.097 181.607 182.228C181.476 182.349 181.364 182.461 181.271 182.564L180.501 181.696C180.576 181.612 180.702 181.5 180.879 181.36C181.056 181.211 181.28 181.061 181.551 180.912C181.822 180.763 182.134 180.637 182.489 180.534C182.853 180.422 183.25 180.366 183.679 180.366C184.258 180.366 184.752 180.469 185.163 180.674C185.583 180.87 185.905 181.141 186.129 181.486C186.353 181.822 186.465 182.2 186.465 182.62C186.465 182.984 186.386 183.301 186.227 183.572C186.078 183.843 185.882 184.081 185.639 184.286C185.406 184.491 185.158 184.669 184.897 184.818C184.645 184.958 184.416 185.079 184.211 185.182C183.791 185.387 183.432 185.574 183.133 185.742C182.834 185.91 182.587 186.078 182.391 186.246C182.204 186.405 182.05 186.573 181.929 186.75C181.817 186.927 181.733 187.137 181.677 187.38H186.619V188.5H180.389ZM191.969 190.278V187.912H187.475V186.82L192.361 180.506H193.201V186.792H194.433V187.912H193.201V190.278H191.969ZM188.749 186.792H192.095V182.41L188.749 186.792Z" fill="black"/>
<path d="M298.955 152.512C298.891 152.437 298.806 152.365 298.699 152.296C298.592 152.227 298.472 152.165 298.339 152.112C298.206 152.053 298.059 152.008 297.899 151.976C297.744 151.939 297.582 151.92 297.411 151.92C296.974 151.92 296.651 152.003 296.443 152.168C296.235 152.333 296.131 152.56 296.131 152.848C296.131 153.051 296.184 153.211 296.291 153.328C296.398 153.445 296.56 153.541 296.779 153.616C297.003 153.691 297.286 153.768 297.627 153.848C298.022 153.933 298.363 154.037 298.651 154.16C298.939 154.283 299.16 154.448 299.315 154.656C299.47 154.859 299.547 155.131 299.547 155.472C299.547 155.744 299.494 155.981 299.387 156.184C299.286 156.381 299.142 156.547 298.955 156.68C298.768 156.808 298.55 156.904 298.299 156.968C298.048 157.027 297.776 157.056 297.483 157.056C297.195 157.056 296.912 157.027 296.635 156.968C296.363 156.904 296.104 156.813 295.859 156.696C295.614 156.579 295.384 156.432 295.171 156.256L295.515 155.648C295.6 155.739 295.71 155.829 295.843 155.92C295.982 156.005 296.136 156.085 296.307 156.16C296.483 156.235 296.672 156.296 296.875 156.344C297.078 156.387 297.286 156.408 297.499 156.408C297.904 156.408 298.219 156.336 298.443 156.192C298.667 156.043 298.779 155.827 298.779 155.544C298.779 155.331 298.715 155.16 298.587 155.032C298.464 154.904 298.28 154.797 298.035 154.712C297.79 154.627 297.491 154.541 297.139 154.456C296.755 154.36 296.432 154.256 296.171 154.144C295.91 154.027 295.712 153.875 295.579 153.688C295.451 153.501 295.387 153.259 295.387 152.96C295.387 152.597 295.475 152.291 295.651 152.04C295.827 151.789 296.07 151.6 296.379 151.472C296.688 151.344 297.038 151.28 297.427 151.28C297.683 151.28 297.92 151.307 298.139 151.36C298.363 151.413 298.571 151.488 298.763 151.584C298.955 151.68 299.131 151.795 299.291 151.928L298.955 152.512ZM304.27 156.36V157H300.414V151.32H304.198V151.96H301.134V153.8H303.798V154.4H301.134V156.36H304.27ZM305.178 157V151.32H307.61C307.86 151.32 308.09 151.373 308.298 151.48C308.506 151.581 308.687 151.72 308.842 151.896C308.996 152.067 309.116 152.261 309.202 152.48C309.287 152.693 309.33 152.912 309.33 153.136C309.33 153.397 309.279 153.645 309.178 153.88C309.082 154.115 308.943 154.315 308.762 154.48C308.586 154.645 308.378 154.76 308.138 154.824L309.514 157H308.698L307.402 154.96H305.898V157H305.178ZM305.898 154.32H307.618C307.815 154.32 307.986 154.267 308.13 154.16C308.279 154.048 308.394 153.901 308.474 153.72C308.559 153.539 308.602 153.344 308.602 153.136C308.602 152.923 308.554 152.728 308.458 152.552C308.362 152.371 308.236 152.227 308.082 152.12C307.927 152.013 307.756 151.96 307.57 151.96H305.898V154.32ZM310.356 157V151.32H311.076V157H310.356ZM314.082 151.32H314.69L317.01 157H316.242L315.57 155.336H313.186L312.522 157H311.754L314.082 151.32ZM315.41 154.776L314.386 152.152L313.33 154.776H315.41ZM317.688 157V151.32H318.408V156.36H321.576V157H317.688Z" fill="#8D98AF"/>
<rect x="295.439" y="164.5" width="163" height="39" rx="11.5" stroke="#E7E9EF"/>
<path d="M316.427 181.472H311.317V180.338H318.373L313.375 190.278H311.975L316.427 181.472ZM326.159 185.21C326.159 185.845 326 186.423 325.683 186.946C325.375 187.459 324.95 187.87 324.409 188.178C323.877 188.486 323.275 188.64 322.603 188.64C321.894 188.64 321.268 188.472 320.727 188.136C320.186 187.791 319.761 187.296 319.453 186.652C319.154 186.008 319.005 185.243 319.005 184.356C319.005 183.049 319.159 181.962 319.467 181.094C319.775 180.226 320.209 179.577 320.769 179.148C321.329 178.709 321.982 178.49 322.729 178.49C323.373 178.49 323.956 178.649 324.479 178.966C325.011 179.274 325.426 179.703 325.725 180.254L324.969 180.996C324.764 180.557 324.46 180.212 324.059 179.96C323.658 179.699 323.21 179.568 322.715 179.568C322.211 179.568 321.768 179.722 321.385 180.03C321.002 180.338 320.704 180.781 320.489 181.36C320.284 181.939 320.176 182.639 320.167 183.46C320.307 183.133 320.503 182.853 320.755 182.62C321.007 182.377 321.301 182.191 321.637 182.06C321.982 181.929 322.346 181.864 322.729 181.864C323.373 181.864 323.952 182.013 324.465 182.312C324.988 182.611 325.398 183.012 325.697 183.516C326.005 184.02 326.159 184.585 326.159 185.21ZM322.617 187.576C323.046 187.576 323.438 187.469 323.793 187.254C324.157 187.039 324.446 186.755 324.661 186.4C324.876 186.036 324.983 185.639 324.983 185.21C324.983 184.781 324.876 184.389 324.661 184.034C324.446 183.679 324.157 183.395 323.793 183.18C323.438 182.965 323.046 182.858 322.617 182.858C322.188 182.858 321.791 182.965 321.427 183.18C321.072 183.395 320.788 183.679 320.573 184.034C320.358 184.389 320.251 184.781 320.251 185.21C320.251 185.639 320.358 186.036 320.573 186.4C320.788 186.755 321.072 187.039 321.427 187.254C321.791 187.469 322.188 187.576 322.617 187.576ZM334.327 185.686C334.327 186.274 334.164 186.787 333.837 187.226C333.52 187.665 333.091 188.005 332.549 188.248C332.017 188.491 331.434 188.612 330.799 188.612C330.137 188.612 329.544 188.481 329.021 188.22C328.499 187.949 328.083 187.59 327.775 187.142C327.477 186.694 327.327 186.19 327.327 185.63C327.327 185.219 327.421 184.851 327.607 184.524C327.794 184.197 328.027 183.922 328.307 183.698C328.597 183.465 328.891 183.292 329.189 183.18C328.919 183.059 328.667 182.9 328.433 182.704C328.2 182.508 328.013 182.279 327.873 182.018C327.733 181.757 327.663 181.472 327.663 181.164C327.663 180.744 327.757 180.375 327.943 180.058C328.13 179.731 328.377 179.456 328.685 179.232C328.993 179.008 329.334 178.84 329.707 178.728C330.081 178.616 330.454 178.56 330.827 178.56C331.201 178.56 331.574 178.616 331.947 178.728C332.321 178.84 332.661 179.008 332.969 179.232C333.287 179.447 333.539 179.717 333.725 180.044C333.912 180.361 334.005 180.73 334.005 181.15C334.005 181.458 333.935 181.747 333.795 182.018C333.655 182.279 333.464 182.508 333.221 182.704C332.988 182.9 332.731 183.059 332.451 183.18C332.787 183.311 333.095 183.497 333.375 183.74C333.665 183.973 333.893 184.253 334.061 184.58C334.239 184.907 334.327 185.275 334.327 185.686ZM333.081 185.602C333.081 185.303 333.016 185.037 332.885 184.804C332.755 184.561 332.577 184.361 332.353 184.202C332.129 184.034 331.882 183.908 331.611 183.824C331.35 183.74 331.084 183.698 330.813 183.698C330.44 183.698 330.081 183.777 329.735 183.936C329.399 184.095 329.124 184.319 328.909 184.608C328.695 184.888 328.587 185.224 328.587 185.616C328.587 185.905 328.653 186.167 328.783 186.4C328.914 186.633 329.087 186.834 329.301 187.002C329.525 187.17 329.768 187.296 330.029 187.38C330.3 187.464 330.571 187.506 330.841 187.506C331.215 187.506 331.569 187.427 331.905 187.268C332.251 187.109 332.531 186.885 332.745 186.596C332.969 186.307 333.081 185.975 333.081 185.602ZM328.909 181.206C328.909 181.533 329.007 181.813 329.203 182.046C329.399 182.279 329.647 182.457 329.945 182.578C330.244 182.69 330.538 182.746 330.827 182.746C331.126 182.746 331.42 182.685 331.709 182.564C332.008 182.443 332.255 182.265 332.451 182.032C332.647 181.799 332.745 181.514 332.745 181.178C332.745 180.861 332.652 180.59 332.465 180.366C332.288 180.142 332.05 179.969 331.751 179.848C331.462 179.727 331.149 179.666 330.813 179.666C330.487 179.666 330.174 179.731 329.875 179.862C329.586 179.983 329.353 180.161 329.175 180.394C328.998 180.618 328.909 180.889 328.909 181.206ZM335.373 183.936C335.373 183.301 335.527 182.727 335.835 182.214C336.152 181.691 336.581 181.276 337.123 180.968C337.664 180.66 338.266 180.506 338.929 180.506C339.647 180.506 340.273 180.679 340.805 181.024C341.346 181.36 341.766 181.85 342.065 182.494C342.373 183.129 342.527 183.894 342.527 184.79C342.527 186.097 342.373 187.184 342.065 188.052C341.757 188.92 341.323 189.569 340.763 189.998C340.203 190.437 339.549 190.656 338.803 190.656C338.159 190.656 337.571 190.497 337.039 190.18C336.516 189.872 336.105 189.443 335.807 188.892L336.563 188.15C336.768 188.579 337.071 188.925 337.473 189.186C337.883 189.447 338.331 189.578 338.817 189.578C339.33 189.578 339.773 189.424 340.147 189.116C340.529 188.808 340.823 188.365 341.029 187.786C341.243 187.207 341.355 186.507 341.365 185.686C341.234 186.003 341.038 186.283 340.777 186.526C340.525 186.769 340.231 186.955 339.895 187.086C339.559 187.217 339.195 187.282 338.803 187.282C338.168 187.282 337.589 187.133 337.067 186.834C336.544 186.535 336.129 186.134 335.821 185.63C335.522 185.126 335.373 184.561 335.373 183.936ZM338.915 181.57C338.485 181.57 338.089 181.677 337.725 181.892C337.37 182.107 337.085 182.391 336.871 182.746C336.656 183.101 336.549 183.497 336.549 183.936C336.549 184.365 336.656 184.757 336.871 185.112C337.085 185.467 337.37 185.751 337.725 185.966C338.089 186.181 338.485 186.288 338.915 186.288C339.353 186.288 339.75 186.181 340.105 185.966C340.459 185.751 340.744 185.467 340.959 185.112C341.173 184.757 341.281 184.365 341.281 183.936C341.281 183.507 341.173 183.115 340.959 182.76C340.744 182.396 340.455 182.107 340.091 181.892C339.736 181.677 339.344 181.57 338.915 181.57Z" fill="black"/>
<rect x="118.939" y="250" width="323.186" height="40" rx="12" fill="#00112D"/>
<path d="M253.472 274.06C252.912 274.06 252.388 273.94 251.9 273.7C251.42 273.452 251 273.124 250.64 272.716C250.28 272.3 250 271.836 249.8 271.324C249.6 270.804 249.5 270.268 249.5 269.716C249.5 269.14 249.6 268.596 249.8 268.084C250 267.564 250.276 267.104 250.628 266.704C250.988 266.304 251.408 265.992 251.888 265.768C252.376 265.536 252.904 265.42 253.472 265.42C254.296 265.42 254.976 265.592 255.512 265.936C256.048 266.28 256.452 266.728 256.724 267.28L255.896 267.856C255.648 267.36 255.308 266.992 254.876 266.752C254.444 266.512 253.968 266.392 253.448 266.392C253.016 266.392 252.624 266.484 252.272 266.668C251.92 266.852 251.616 267.104 251.36 267.424C251.112 267.736 250.92 268.092 250.784 268.492C250.656 268.892 250.592 269.308 250.592 269.74C250.592 270.196 250.664 270.628 250.808 271.036C250.96 271.436 251.172 271.792 251.444 272.104C251.716 272.408 252.032 272.648 252.392 272.824C252.752 273 253.14 273.088 253.556 273.088C254.044 273.088 254.508 272.964 254.948 272.716C255.388 272.468 255.804 272.088 256.196 271.576V272.692C255.428 273.604 254.52 274.06 253.472 274.06ZM256.064 270.568H254.228V269.752H256.976V274H256.064V270.568ZM261.102 274.12C260.63 274.12 260.198 274.036 259.806 273.868C259.422 273.692 259.086 273.456 258.798 273.16C258.518 272.856 258.298 272.508 258.138 272.116C257.986 271.724 257.91 271.308 257.91 270.868C257.91 270.276 258.046 269.736 258.318 269.248C258.59 268.76 258.966 268.368 259.446 268.072C259.934 267.776 260.49 267.628 261.114 267.628C261.746 267.628 262.294 267.78 262.758 268.084C263.23 268.38 263.594 268.772 263.85 269.26C264.114 269.74 264.246 270.26 264.246 270.82C264.246 270.9 264.242 270.98 264.234 271.06C264.234 271.132 264.23 271.188 264.222 271.228H259.026C259.058 271.636 259.17 272 259.362 272.32C259.562 272.632 259.818 272.88 260.13 273.064C260.442 273.24 260.778 273.328 261.138 273.328C261.522 273.328 261.882 273.232 262.218 273.04C262.562 272.848 262.798 272.596 262.926 272.284L263.838 272.536C263.702 272.84 263.498 273.112 263.226 273.352C262.962 273.592 262.646 273.78 262.278 273.916C261.918 274.052 261.526 274.12 261.102 274.12ZM258.99 270.496H263.262C263.23 270.088 263.114 269.728 262.914 269.416C262.714 269.104 262.458 268.86 262.146 268.684C261.834 268.508 261.49 268.42 261.114 268.42C260.746 268.42 260.406 268.508 260.094 268.684C259.782 268.86 259.526 269.104 259.326 269.416C259.134 269.728 259.022 270.088 258.99 270.496ZM268.481 273.688C268.393 273.728 268.273 273.78 268.121 273.844C267.969 273.908 267.793 273.964 267.593 274.012C267.393 274.06 267.181 274.084 266.957 274.084C266.701 274.084 266.465 274.04 266.249 273.952C266.033 273.856 265.861 273.712 265.733 273.52C265.605 273.32 265.541 273.072 265.541 272.776V268.564H264.689V267.736H265.541V265.648H266.597V267.736H268.001V268.564H266.597V272.452C266.613 272.676 266.689 272.844 266.825 272.956C266.961 273.06 267.121 273.112 267.305 273.112C267.513 273.112 267.705 273.076 267.881 273.004C268.057 272.932 268.173 272.88 268.229 272.848L268.481 273.688ZM277.427 267.268C277.331 267.156 277.203 267.048 277.043 266.944C276.883 266.84 276.703 266.748 276.503 266.668C276.303 266.58 276.083 266.512 275.843 266.464C275.611 266.408 275.367 266.38 275.111 266.38C274.455 266.38 273.971 266.504 273.659 266.752C273.347 267 273.191 267.34 273.191 267.772C273.191 268.076 273.271 268.316 273.431 268.492C273.591 268.668 273.835 268.812 274.163 268.924C274.499 269.036 274.923 269.152 275.435 269.272C276.027 269.4 276.539 269.556 276.971 269.74C277.403 269.924 277.735 270.172 277.967 270.484C278.199 270.788 278.315 271.196 278.315 271.708C278.315 272.116 278.235 272.472 278.075 272.776C277.923 273.072 277.707 273.32 277.427 273.52C277.147 273.712 276.819 273.856 276.443 273.952C276.067 274.04 275.659 274.084 275.219 274.084C274.787 274.084 274.363 274.04 273.947 273.952C273.539 273.856 273.151 273.72 272.783 273.544C272.415 273.368 272.071 273.148 271.751 272.884L272.267 271.972C272.395 272.108 272.559 272.244 272.759 272.38C272.967 272.508 273.199 272.628 273.455 272.74C273.719 272.852 274.003 272.944 274.307 273.016C274.611 273.08 274.923 273.112 275.243 273.112C275.851 273.112 276.323 273.004 276.659 272.788C276.995 272.564 277.163 272.24 277.163 271.816C277.163 271.496 277.067 271.24 276.875 271.048C276.691 270.856 276.415 270.696 276.047 270.568C275.679 270.44 275.231 270.312 274.703 270.184C274.127 270.04 273.643 269.884 273.251 269.716C272.859 269.54 272.563 269.312 272.363 269.032C272.171 268.752 272.075 268.388 272.075 267.94C272.075 267.396 272.207 266.936 272.471 266.56C272.735 266.184 273.099 265.9 273.563 265.708C274.027 265.516 274.551 265.42 275.135 265.42C275.519 265.42 275.875 265.46 276.203 265.54C276.539 265.62 276.851 265.732 277.139 265.876C277.427 266.02 277.691 266.192 277.931 266.392L277.427 267.268ZM282.571 273.688C282.483 273.728 282.363 273.78 282.211 273.844C282.059 273.908 281.883 273.964 281.683 274.012C281.483 274.06 281.271 274.084 281.047 274.084C280.791 274.084 280.555 274.04 280.339 273.952C280.123 273.856 279.951 273.712 279.823 273.52C279.695 273.32 279.631 273.072 279.631 272.776V268.564H278.779V267.736H279.631V265.648H280.687V267.736H282.091V268.564H280.687V272.452C280.703 272.676 280.779 272.844 280.915 272.956C281.051 273.06 281.211 273.112 281.395 273.112C281.603 273.112 281.795 273.076 281.971 273.004C282.147 272.932 282.263 272.88 282.319 272.848L282.571 273.688ZM282.937 272.188C282.937 271.788 283.049 271.444 283.273 271.156C283.505 270.86 283.821 270.632 284.221 270.472C284.621 270.312 285.085 270.232 285.613 270.232C285.893 270.232 286.189 270.256 286.501 270.304C286.813 270.344 287.089 270.408 287.329 270.496V270.04C287.329 269.56 287.185 269.184 286.897 268.912C286.609 268.632 286.201 268.492 285.673 268.492C285.329 268.492 284.997 268.556 284.677 268.684C284.365 268.804 284.033 268.98 283.681 269.212L283.297 268.468C283.705 268.188 284.113 267.98 284.521 267.844C284.929 267.7 285.353 267.628 285.793 267.628C286.593 267.628 287.225 267.852 287.689 268.3C288.153 268.74 288.385 269.356 288.385 270.148V272.8C288.385 272.928 288.409 273.024 288.457 273.088C288.513 273.144 288.601 273.176 288.721 273.184V274C288.617 274.016 288.525 274.028 288.445 274.036C288.373 274.044 288.313 274.048 288.265 274.048C288.017 274.048 287.829 273.98 287.701 273.844C287.581 273.708 287.513 273.564 287.497 273.412L287.473 273.016C287.201 273.368 286.845 273.64 286.405 273.832C285.965 274.024 285.529 274.12 285.097 274.12C284.681 274.12 284.309 274.036 283.981 273.868C283.653 273.692 283.397 273.46 283.213 273.172C283.029 272.876 282.937 272.548 282.937 272.188ZM287.017 272.632C287.113 272.52 287.189 272.408 287.245 272.296C287.301 272.176 287.329 272.076 287.329 271.996V271.216C287.081 271.12 286.821 271.048 286.549 271C286.277 270.944 286.009 270.916 285.745 270.916C285.209 270.916 284.773 271.024 284.437 271.24C284.109 271.448 283.945 271.736 283.945 272.104C283.945 272.304 283.997 272.5 284.101 272.692C284.213 272.876 284.373 273.028 284.581 273.148C284.797 273.268 285.061 273.328 285.373 273.328C285.701 273.328 286.013 273.264 286.309 273.136C286.605 273 286.841 272.832 287.017 272.632ZM293.266 268.66C292.738 268.668 292.27 268.804 291.862 269.068C291.462 269.324 291.178 269.68 291.01 270.136V274H289.954V267.736H290.938V269.188C291.154 268.756 291.438 268.408 291.79 268.144C292.15 267.872 292.526 267.72 292.918 267.688C292.998 267.688 293.066 267.688 293.122 267.688C293.178 267.688 293.226 267.692 293.266 267.7V268.66ZM297.433 273.688C297.345 273.728 297.225 273.78 297.073 273.844C296.921 273.908 296.745 273.964 296.545 274.012C296.345 274.06 296.133 274.084 295.909 274.084C295.653 274.084 295.417 274.04 295.201 273.952C294.985 273.856 294.813 273.712 294.685 273.52C294.557 273.32 294.493 273.072 294.493 272.776V268.564H293.641V267.736H294.493V265.648H295.549V267.736H296.953V268.564H295.549V272.452C295.565 272.676 295.641 272.844 295.777 272.956C295.913 273.06 296.073 273.112 296.257 273.112C296.465 273.112 296.657 273.076 296.833 273.004C297.009 272.932 297.125 272.88 297.181 272.848L297.433 273.688ZM300.982 274.12C300.51 274.12 300.078 274.036 299.686 273.868C299.302 273.692 298.966 273.456 298.678 273.16C298.398 272.856 298.178 272.508 298.018 272.116C297.866 271.724 297.79 271.308 297.79 270.868C297.79 270.276 297.926 269.736 298.198 269.248C298.47 268.76 298.846 268.368 299.326 268.072C299.814 267.776 300.37 267.628 300.994 267.628C301.626 267.628 302.174 267.78 302.638 268.084C303.11 268.38 303.474 268.772 303.73 269.26C303.994 269.74 304.126 270.26 304.126 270.82C304.126 270.9 304.122 270.98 304.114 271.06C304.114 271.132 304.11 271.188 304.102 271.228H298.906C298.938 271.636 299.05 272 299.242 272.32C299.442 272.632 299.698 272.88 300.01 273.064C300.322 273.24 300.658 273.328 301.018 273.328C301.402 273.328 301.762 273.232 302.098 273.04C302.442 272.848 302.678 272.596 302.806 272.284L303.718 272.536C303.582 272.84 303.378 273.112 303.106 273.352C302.842 273.592 302.526 273.78 302.158 273.916C301.798 274.052 301.406 274.12 300.982 274.12ZM298.87 270.496H303.142C303.11 270.088 302.994 269.728 302.794 269.416C302.594 269.104 302.338 268.86 302.026 268.684C301.714 268.508 301.37 268.42 300.994 268.42C300.626 268.42 300.286 268.508 299.974 268.684C299.662 268.86 299.406 269.104 299.206 269.416C299.014 269.728 298.902 270.088 298.87 270.496ZM304.772 270.88C304.772 270.288 304.892 269.748 305.132 269.26C305.38 268.764 305.716 268.368 306.14 268.072C306.572 267.776 307.064 267.628 307.616 267.628C308.12 267.628 308.572 267.76 308.972 268.024C309.372 268.288 309.684 268.608 309.908 268.984V265.24H310.964V272.8C310.964 272.928 310.988 273.024 311.036 273.088C311.092 273.144 311.18 273.176 311.3 273.184V274C311.1 274.032 310.944 274.048 310.832 274.048C310.624 274.048 310.44 273.976 310.28 273.832C310.128 273.688 310.052 273.528 310.052 273.352V272.824C309.804 273.224 309.472 273.54 309.056 273.772C308.64 274.004 308.208 274.12 307.76 274.12C307.328 274.12 306.928 274.036 306.56 273.868C306.2 273.692 305.884 273.452 305.612 273.148C305.348 272.844 305.14 272.5 304.988 272.116C304.844 271.724 304.772 271.312 304.772 270.88ZM309.908 271.804V270.004C309.812 269.732 309.656 269.488 309.44 269.272C309.224 269.048 308.98 268.872 308.708 268.744C308.444 268.608 308.18 268.54 307.916 268.54C307.604 268.54 307.32 268.608 307.064 268.744C306.816 268.872 306.6 269.048 306.416 269.272C306.24 269.488 306.104 269.736 306.008 270.016C305.912 270.296 305.864 270.588 305.864 270.892C305.864 271.204 305.916 271.5 306.02 271.78C306.132 272.06 306.284 272.308 306.476 272.524C306.676 272.74 306.904 272.908 307.16 273.028C307.424 273.148 307.708 273.208 308.012 273.208C308.204 273.208 308.4 273.172 308.6 273.1C308.808 273.028 309.004 272.928 309.188 272.8C309.372 272.672 309.528 272.524 309.656 272.356C309.784 272.18 309.868 271.996 309.908 271.804Z" fill="white"/>
<defs>
<filter id="filter0_d_13001_722" x="0.125977" y="0" width="520.812" height="410" filterUnits="userSpaceOnUse" color-interpolation-filters="sRGB">
<feFlood flood-opacity="0" result="BackgroundImageFix"/>
<feColorMatrix in="SourceAlpha" type="matrix" values="0 0 0 0 0 0 0 0 0 0 0 0 0 0 0 0 0 0 127 0" result="hardAlpha"/>
<feMorphology radius="4" operator="erode" in="SourceAlpha" result="effect1_dropShadow_13001_722"/>
<feOffset dx="-20" dy="20"/>
<feGaussianBlur stdDeviation="40"/>
<feComposite in2="hardAlpha" operator="out"/>
<feColorMatrix type="matrix" values="0 0 0 0 0 0 0 0 0 0.0666667 0 0 0 0 0.176471 0 0 0 0.08 0"/>
<feBlend mode="normal" in2="BackgroundImageFix" result="effect1_dropShadow_13001_722"/>
<feBlend mode="normal" in="SourceGraphic" in2="effect1_dropShadow_13001_722" result="shape"/>
</filter>
</defs>
</svg>
