<svg width="24" height="25" viewBox="0 0 24 25" fill="none" xmlns="http://www.w3.org/2000/svg">
<path d="M10.8586 5.51228C11.2178 4.40671 12.7819 4.40671 13.1412 5.51229L14.4246 9.46244C14.5853 9.95687 15.046 10.2916 15.5659 10.2916H19.7193C20.8818 10.2916 21.3651 11.7792 20.4247 12.4624L17.0645 14.9038C16.6439 15.2093 16.4679 15.751 16.6286 16.2454L17.912 20.1956C18.2713 21.3011 17.0059 22.2205 16.0654 21.5372L12.7052 19.0959C12.2846 18.7903 11.7151 18.7903 11.2945 19.0959L7.93434 21.5372C6.99388 22.2205 5.72851 21.3011 6.08773 20.1956L7.37121 16.2454C7.53186 15.751 7.35587 15.2093 6.93529 14.9038L3.57508 12.4624C2.63463 11.7792 3.11796 10.2916 4.28043 10.2916H8.43387C8.95374 10.2916 9.41448 9.95687 9.57513 9.46244L10.8586 5.51228Z" fill="#FAC02C"/>
</svg>
